<svg xmlns="http://www.w3.org/2000/svg" xmlns:xlink="http://www.w3.org/1999/xlink" width="1080" zoomAndPan="magnify" viewBox="0 0 810 809.999993" height="1080" preserveAspectRatio="xMidYMid meet" version="1.0"><defs><clipPath id="a263f2eca1"><path d="M 1 265.089844 L 809 265.089844 L 809 544.839844 L 1 544.839844 Z M 1 265.089844 " clip-rule="nonzero"/></clipPath></defs><rect x="-81" width="972" fill="#ffffff" y="-80.999999" height="971.999992" fill-opacity="1"/><rect x="-81" width="972" fill="#ffffff" y="-80.999999" height="971.999992" fill-opacity="1"/><g clip-path="url(#a263f2eca1)"><path fill="#f58235" d="M 1.773438 333.011719 L 29.847656 330.304688 L 57.734375 329.382812 L 85.457031 326.511719 L 113.144531 323.105469 L 140.902344 320.488281 L 168.773438 319.234375 L 196.515625 316.566406 L 224.238281 313.472656 L 252.054688 311.683594 L 279.796875 308.996094 L 307.738281 308.644531 L 335.445312 305.496094 L 363.09375 301.59375 L 390.980469 300.636719 L 418.832031 299.199219 L 446.628906 296.988281 L 474.425781 294.945312 L 502.207031 292.660156 L 529.910156 289.347656 L 557.597656 285.828125 L 585.394531 283.671875 L 613.261719 282.328125 L 640.984375 279.234375 L 668.820312 277.558594 L 696.652344 275.792969 L 724.429688 273.398438 L 752.082031 269.511719 L 779.949219 268.167969 L 808.207031 265.089844 L 802.699219 291.925781 L 796.566406 318.113281 L 794.320312 345.019531 L 786.859375 370.949219 L 782.105469 397.398438 L 778.21875 423.992188 L 772.398438 450.234375 L 769.339844 476.992188 L 763.390625 503.21875 L 758.050781 529.40625 L 730.140625 528.964844 L 702.140625 531.359375 L 674.070312 530.769531 L 646.070312 533.035156 L 617.980469 531.339844 L 589.996094 534.046875 L 561.945312 534.066406 L 533.925781 535.265625 L 505.890625 535.835938 L 477.851562 536.351562 L 449.816406 536.8125 L 421.761719 536.5 L 393.746094 537.824219 L 365.707031 538.503906 L 337.671875 539.207031 L 309.601562 538.320312 L 281.5625 539.019531 L 253.546875 541.027344 L 225.492188 541.25 L 197.417969 540.898438 L 169.402344 542.742188 L 141.328125 542.355469 L 113.292969 543.238281 L 85.253906 544.839844 L 57.917969 544.378906 L 49.316406 519.09375 L 43 492.445312 L 35.207031 466.164062 L 30.472656 439.128906 L 22.992188 412.773438 L 14.503906 386.679688 L 9.824219 359.570312 Z M 1.773438 333.011719 " fill-opacity="1" fill-rule="nonzero"/></g></svg>