<svg xmlns="http://www.w3.org/2000/svg" xmlns:xlink="http://www.w3.org/1999/xlink" width="1080" zoomAndPan="magnify" viewBox="0 0 810 809.999993" height="1080" preserveAspectRatio="xMidYMid meet" version="1.0"><metadata><ContainsAiGeneratedContent>Yes</ContainsAiGeneratedContent></metadata><defs><clipPath id="179e607412"><path d="M 0 270 L 810 270 L 810 448.699219 L 0 448.699219 Z M 0 270 " clip-rule="nonzero"/></clipPath><clipPath id="ccbc4b7120"><path d="M 810 411.199219 L 810 305.882812 C 810 296.113281 805.992188 286.769531 798.914062 280.035156 C 791.835938 273.300781 782.304688 269.765625 772.546875 270.25 L 37.453125 306.898438 C 16.472656 307.945312 0 325.261719 0 346.265625 L 0 411.199219 C 0 421.144531 3.949219 430.683594 10.984375 437.714844 C 18.015625 444.75 27.554688 448.699219 37.5 448.699219 L 772.5 448.699219 C 782.445312 448.699219 791.984375 444.75 799.015625 437.714844 C 806.050781 430.683594 810 421.144531 810 411.199219 Z M 810 411.199219 " clip-rule="nonzero"/></clipPath></defs><rect x="-81" width="972" fill="#ffffff" y="-80.999999" height="971.999992" fill-opacity="1"/><rect x="-81" width="972" fill="#ffffff" y="-80.999999" height="971.999992" fill-opacity="1"/><g clip-path="url(#179e607412)"><g clip-path="url(#ccbc4b7120)"><path fill="#00b96d" d="M 810 448.699219 L -0.0117188 448.699219 L -0.0117188 268.382812 L 810 268.382812 Z M 810 448.699219 " fill-opacity="1" fill-rule="nonzero"/></g></g></svg>