<svg xmlns="http://www.w3.org/2000/svg" xmlns:xlink="http://www.w3.org/1999/xlink" width="1080" zoomAndPan="magnify" viewBox="0 0 810 809.999993" height="1080" preserveAspectRatio="xMidYMid meet" version="1.0"><metadata><ContainsAiGeneratedContent>Yes</ContainsAiGeneratedContent></metadata><rect x="-81" width="972" fill="#ffffff" y="-80.999999" height="971.999992" fill-opacity="1"/><rect x="-81" width="972" fill="#ffffff" y="-80.999999" height="971.999992" fill-opacity="1"/><path fill="#008ffd" d="M 3.140625 321.484375 C 15.359375 311.539062 43.980469 310.140625 58.992188 308.570312 C 75.398438 307 91.628906 308.570312 108.035156 308.570312 C 149.574219 308.570312 187.621094 301.761719 227.761719 291.816406 C 247.484375 287.277344 269.300781 281.167969 289.023438 285.007812 C 307.351562 287.976562 324.453125 301.066406 342.78125 304.730469 C 389.726562 315.378906 443.484375 308.570312 489.210938 296.351562 C 520.453125 287.976562 550.996094 286.578125 583.808594 287.277344 C 600.910156 287.277344 617.144531 292.6875 633.546875 294.085938 C 680.496094 298.621094 724.828125 281.167969 771.777344 285.007812 C 786.789062 285.707031 791.5 287.277344 792.894531 302.460938 C 793.59375 310.140625 794.292969 317.644531 794.292969 325.324219 C 794.988281 339.8125 796.386719 354.296875 797.78125 368.785156 C 800.574219 400.722656 806.683594 431.265625 808.605469 462.507812 C 809.300781 475.421875 810 488.335938 809.300781 500.554688 C 797.085938 505.09375 777.363281 498.285156 764.445312 497.585938 C 747.34375 496.890625 729.015625 495.320312 712.785156 499.855469 C 680.148438 509.804688 648.035156 522.023438 613.476562 518.878906 C 593.058594 516.613281 572.636719 508.933594 552.21875 505.964844 C 524.988281 502.125 499.160156 497.585938 472.628906 497.585938 C 431.09375 497.585938 391.648438 513.644531 351.507812 521.148438 C 314.679688 528.828125 278.027344 516.613281 240.503906 512.773438 C 200.363281 508.933594 163.535156 505.09375 124.089844 512.074219 C 107.6875 514.34375 90.058594 516.613281 73.652344 515.039062 C 57.945312 513.46875 45.027344 505.09375 29.320312 505.09375 C 23.910156 505.09375 17.105469 506.664062 12.21875 505.09375 C 1.917969 502.125 5.410156 499.683594 6.808594 489.910156 C 7.855469 475.421875 7.855469 460.9375 7.855469 447.324219 C 7.855469 426.726562 1.046875 408.402344 1.046875 387.109375 C 1.046875 366.515625 0 342.253906 3.140625 321.484375 " fill-opacity="1" fill-rule="nonzero"/></svg>