<svg xmlns="http://www.w3.org/2000/svg" xmlns:xlink="http://www.w3.org/1999/xlink" width="1080" zoomAndPan="magnify" viewBox="0 0 810 809.999993" height="1080" preserveAspectRatio="xMidYMid meet" version="1.0"><metadata><ContainsAiGeneratedContent>Yes</ContainsAiGeneratedContent></metadata><rect x="-81" width="972" fill="#ffffff" y="-80.999999" height="971.999992" fill-opacity="1"/><rect x="-81" width="972" fill="#ffffff" y="-80.999999" height="971.999992" fill-opacity="1"/><path fill="#fa6ee3" d="M 801.972656 450.652344 C 788.589844 441.929688 772.335938 439.960938 757.039062 436.800781 C 749.09375 435.011719 740.351562 434.273438 733.902344 428.800781 C 738.347656 422.914062 744.792969 419.191406 750.933594 415.347656 C 762.816406 407.996094 775.0625 401.1875 786.695312 393.421875 C 794.351562 388.003906 802.804688 382.332031 806.667969 373.429688 C 809.050781 368.0625 806.632812 361.707031 801.792969 358.671875 C 791.117188 351.484375 777.71875 351.214844 765.960938 346.679688 C 769.644531 342.292969 777.449219 338.664062 776 331.960938 C 772.460938 325.929688 764.28125 325.929688 758.519531 323.128906 C 764.027344 314.984375 773.09375 310.378906 780.480469 304.183594 C 785.320312 300.046875 791.40625 295.984375 792.871094 289.410156 C 793.410156 282.855469 785.539062 281.101562 780.570312 280.34375 C 759.53125 277.5625 738.3125 280.269531 717.199219 280.632812 C 674.488281 281.695312 631.773438 283.160156 589.0625 284.351562 C 484.761719 286.5 380.554688 291.632812 276.367188 296.523438 C 214.183594 300.117188 151.804688 303.839844 90.328125 314.332031 C 65.152344 319.261719 39.253906 324.101562 16.625 336.746094 C 9.039062 341.386719 -0.0625 348.214844 0.695312 358.183594 C 2.175781 366.941406 11.171875 371.292969 18.574219 374.328125 C 39.253906 381.914062 61.433594 383.898438 83.214844 385.976562 C 93.960938 387.152344 104.992188 387.042969 115.359375 390.472656 C 95.855469 403.53125 71.621094 407.667969 52.601562 421.59375 C 48.878906 423.957031 48.285156 430.007812 52.621094 432.085938 C 63.492188 437.414062 76.007812 437.050781 87.636719 439.652344 C 74.273438 446.824219 59.609375 451.121094 46.207031 458.234375 C 41.1875 461.109375 33.820312 464.828125 34.957031 471.765625 C 37.753906 478.664062 45.863281 480.9375 51.445312 485.164062 C 48.734375 489.5 40.535156 494.863281 46.40625 499.9375 C 54.640625 504.851562 64.609375 505.390625 73.585938 508.460938 C 69.394531 511.660156 64.5 514.007812 60.796875 517.816406 C 58.683594 520.128906 59.914062 523.851562 62.765625 524.878906 C 70.550781 527.859375 79.09375 527.769531 87.3125 528.546875 C 158.199219 532.394531 229.246094 531.347656 300.167969 529.269531 C 345.410156 528.457031 390.667969 528.222656 435.875 526.46875 C 479.054688 523.921875 522.292969 521.738281 565.546875 521.121094 C 605.929688 520.128906 646.292969 518.539062 686.640625 516.914062 C 702.261719 516.171875 718.0625 516.878906 733.46875 513.753906 C 754.851562 509.636719 776.164062 502.085938 793.195312 488.144531 C 801.085938 481.714844 808.019531 473.207031 810.007812 463.023438 C 809.753906 457.75 806.359375 453.253906 801.972656 450.652344 Z M 801.972656 450.652344 " fill-opacity="1" fill-rule="nonzero"/></svg>