<svg xmlns="http://www.w3.org/2000/svg" xmlns:xlink="http://www.w3.org/1999/xlink" width="1080" zoomAndPan="magnify" viewBox="0 0 810 809.999993" height="1080" preserveAspectRatio="xMidYMid meet" version="1.0"><metadata><ContainsAiGeneratedContent>Yes</ContainsAiGeneratedContent></metadata><rect x="-81" width="972" fill="#ffffff" y="-80.999999" height="971.999992" fill-opacity="1"/><rect x="-81" width="972" fill="#ffffff" y="-80.999999" height="971.999992" fill-opacity="1"/><path fill="#008ffd" d="M 779.769531 467.769531 C 783.261719 480.847656 779.992188 498.179688 771.671875 508.230469 C 759.414062 523.046875 741.351562 526.261719 724.550781 528.609375 C 489.542969 561.394531 463.699219 537.304688 218.683594 539.347656 C 62.390625 540.648438 54.542969 542.933594 34.8125 532.761719 C 19.546875 524.890625 6.222656 507.066406 6.023438 486.09375 C 5.882812 471.253906 12.164062 457.070312 11.347656 442.265625 C 10.410156 425.191406 0.144531 409.6875 2.144531 392.761719 C 4.195312 375.453125 18.378906 363.738281 20.839844 346.515625 C 22.714844 333.433594 17.367188 319.792969 19.867188 306.878906 C 22.730469 292.101562 35.191406 283.226562 47.089844 281.777344 C 58.992188 280.332031 70.8125 284.457031 82.652344 286.59375 C 122.949219 293.859375 163.382812 278.023438 203.976562 274.28125 C 242.375 270.742188 280.8125 278.0625 319.257812 280.664062 C 445.183594 289.191406 548.328125 248.539062 738.285156 291.390625 C 809.863281 307.539062 758.832031 389.335938 779.769531 467.769531 Z M 779.769531 467.769531 " fill-opacity="1" fill-rule="nonzero"/></svg>