<?xml version="1.0" encoding="UTF-8" standalone="no"?>
<svg
   width="1076.9558"
   zoomAndPan="magnify"
   viewBox="0 0 807.71686 279.75"
   height="373"
   preserveAspectRatio="xMidYMid"
   version="1.0"
   id="svg2"
   sodipodi:docname="3.svg"
   inkscape:version="1.3.2 (091e20e, 2023-11-25, custom)"
   xmlns:inkscape="http://www.inkscape.org/namespaces/inkscape"
   xmlns:sodipodi="http://sodipodi.sourceforge.net/DTD/sodipodi-0.dtd"
   xmlns="http://www.w3.org/2000/svg"
   xmlns:svg="http://www.w3.org/2000/svg">
  <sodipodi:namedview
     id="namedview2"
     pagecolor="#ffffff"
     bordercolor="#999999"
     borderopacity="1"
     inkscape:showpageshadow="0"
     inkscape:pageopacity="0"
     inkscape:pagecheckerboard="0"
     inkscape:deskcolor="#d1d1d1"
     inkscape:zoom="0.75277778"
     inkscape:cx="538.00738"
     inkscape:cy="186.64207"
     inkscape:window-width="1920"
     inkscape:window-height="1009"
     inkscape:window-x="1358"
     inkscape:window-y="-8"
     inkscape:window-maximized="1"
     inkscape:current-layer="svg2" />
  <metadata
     id="metadata1">
    <ContainsAiGeneratedContent>Yes</ContainsAiGeneratedContent>
  </metadata>
  <defs
     id="defs1">
    <clipPath
       clipPathUnits="userSpaceOnUse"
       id="clipPath3">
      <g
         id="g4">
        <path
           d="m 1,265.08984 h 808 v 279.75 H 1 Z m 0,0"
           clip-rule="nonzero"
           id="path3" />
      </g>
    </clipPath>
  </defs>
  <path
     fill="#f58235"
     d="m 1.773438,333.01172 28.074218,-2.70703 27.886719,-0.92188 27.722656,-2.87109 27.687499,-3.40625 27.75781,-2.61719 27.8711,-1.25391 27.74218,-2.66796 27.72266,-3.09375 27.81641,-1.78907 27.74218,-2.6875 27.94141,-0.35156 27.70703,-3.14844 27.64844,-3.90234 27.88672,-0.95703 27.85156,-1.4375 27.79688,-2.21094 27.79687,-2.04297 27.78125,-2.28515 27.70313,-3.3125 27.6875,-3.51954 27.79687,-2.15625 27.86719,-1.34375 27.72265,-3.09375 27.83594,-1.67578 27.83203,-1.76953 27.77735,-2.39062 27.65234,-3.88672 27.86719,-1.34375 28.25781,-3.07813 -5.50781,26.83594 -6.13281,26.1875 -2.2461,26.90625 -7.46094,25.92969 -4.7539,26.44922 -3.88672,26.59375 -5.82031,26.24218 -3.0586,26.75782 -5.94922,26.22656 -5.33984,26.1875 -27.91016,-0.44141 -28,2.39453 -28.07031,-0.58984 -28,2.26563 -28.08984,-1.69532 -27.98438,2.70703 -28.05078,0.0195 -28.01953,1.19921 -28.03516,0.57032 -28.03906,0.51562 -28.03515,0.46094 -28.05469,-0.3125 -28.01563,1.32422 -28.03906,0.67969 -28.03516,0.70312 -28.07031,-0.88672 -28.03906,0.69922 -28.01563,2.00781 -28.05468,0.22266 -28.07422,-0.35156 -28.01563,1.84375 -28.07422,-0.38672 -28.03515,0.88281 L 85.253906,544.8398 57.917969,544.37891 49.316406,519.09375 43,492.44531 35.207031,466.16406 30.472656,439.12891 22.992188,412.77344 14.503906,386.67969 9.824219,359.57031 Z m 0,0"
     fill-opacity="1"
     fill-rule="nonzero"
     id="path2"
     style="stroke:#000000;stroke-opacity:1;fill:none"
     clip-path="url(#clipPath3)"
     transform="translate(-1.117863,-265.08984)" />
</svg>
