<svg xmlns="http://www.w3.org/2000/svg" xmlns:xlink="http://www.w3.org/1999/xlink" width="1080" zoomAndPan="magnify" viewBox="0 0 810 809.999993" height="1080" preserveAspectRatio="xMidYMid meet" version="1.0"><metadata><ContainsAiGeneratedContent>Yes</ContainsAiGeneratedContent></metadata><defs><clipPath id="3904126343"><path d="M 0 58.21875 L 810 58.21875 L 810 751.96875 L 0 751.96875 Z M 0 58.21875 " clip-rule="nonzero"/></clipPath></defs><rect x="-81" width="972" fill="#ffffff" y="-80.999999" height="971.999992" fill-opacity="1"/><rect x="-81" width="972" fill="#ffffff" y="-80.999999" height="971.999992" fill-opacity="1"/><g clip-path="url(#3904126343)"><path fill="#ffffff" d="M 31.46875 282.394531 L 134.4375 217.277344 L 134.4375 134.160156 C 134.4375 126.105469 140.972656 119.566406 149.035156 119.566406 L 288.933594 119.566406 L 368.976562 68.949219 C 380.222656 61.835938 392.605469 58.273438 405.007812 58.273438 C 417.414062 58.273438 429.800781 61.835938 441.046875 68.949219 L 521.085938 119.566406 L 660.984375 119.566406 C 669.046875 119.566406 675.582031 126.105469 675.582031 134.160156 L 675.582031 217.277344 L 778.550781 282.394531 L 778.789062 282.546875 L 779.015625 282.691406 L 779.027344 282.699219 L 779.265625 282.855469 L 779.480469 282.996094 L 779.503906 283.007812 L 779.742188 283.164062 L 779.976562 283.320312 L 780.402344 283.609375 L 780.449219 283.636719 L 780.683594 283.792969 L 780.859375 283.917969 L 780.910156 283.953125 L 781.144531 284.113281 L 781.3125 284.230469 L 781.378906 284.277344 L 781.609375 284.4375 L 781.761719 284.542969 L 781.839844 284.597656 L 782.066406 284.761719 L 782.207031 284.863281 L 782.296875 284.925781 L 782.519531 285.089844 L 782.652344 285.183594 L 782.746094 285.253906 L 782.96875 285.417969 L 783.09375 285.511719 L 783.195312 285.585938 L 783.417969 285.753906 L 783.527344 285.839844 L 783.640625 285.921875 L 784.304688 286.429688 L 784.394531 286.5 L 784.523438 286.601562 L 785.175781 287.117188 L 785.238281 287.171875 C 785.9375 287.734375 786.621094 288.300781 787.285156 288.886719 L 787.308594 288.902344 C 787.980469 289.488281 788.640625 290.09375 789.292969 290.699219 L 789.308594 290.714844 C 789.773438 291.148438 790.226562 291.589844 790.671875 292.039062 L 790.863281 292.230469 L 791.050781 292.421875 L 791.191406 292.558594 L 791.242188 292.613281 L 791.429688 292.804688 L 791.5625 292.941406 L 791.617188 292.996094 L 791.804688 293.195312 L 791.925781 293.320312 L 791.992188 293.390625 L 792.171875 293.585938 L 792.285156 293.703125 L 792.359375 293.789062 L 792.554688 293.988281 C 796.167969 297.902344 799.261719 302.1875 801.796875 306.792969 C 807.179688 316.554688 810.019531 327.621094 810.019531 339.425781 L 810.019531 684.226562 C 810.019531 702.828125 802.4375 719.707031 790.214844 731.929688 C 779.621094 742.523438 765.527344 749.628906 749.847656 751.332031 L 749.738281 751.347656 L 749.25 751.398438 L 748.699219 751.449219 L 748.546875 751.464844 L 748.140625 751.496094 L 747.695312 751.535156 L 747.578125 751.542969 L 747.023438 751.578125 L 746.839844 751.59375 L 746.460938 751.617188 L 745.980469 751.644531 L 745.898438 751.644531 L 745.339844 751.671875 L 745.117188 751.683594 L 744.777344 751.691406 L 744.253906 751.710938 L 744.210938 751.710938 L 743.414062 751.726562 L 743.382812 751.726562 L 743.078125 751.730469 L 66.941406 751.730469 L 66.636719 751.726562 L 66.601562 751.726562 L 65.808594 751.710938 L 65.765625 751.710938 L 65.242188 751.691406 L 64.898438 751.683594 L 64.679688 751.671875 L 64.113281 751.644531 L 64.039062 751.644531 L 63.554688 751.617188 L 63.179688 751.59375 L 62.996094 751.578125 L 62.433594 751.542969 L 62.324219 751.535156 L 61.878906 751.496094 L 61.472656 751.464844 L 61.320312 751.449219 L 60.769531 751.398438 L 60.621094 751.382812 L 60.210938 751.335938 L 60.171875 751.332031 C 44.492188 749.628906 30.398438 742.523438 19.800781 731.929688 C 7.578125 719.703125 0 702.828125 0 684.226562 L 0 339.425781 C 0 327.621094 2.839844 316.5625 8.222656 306.796875 C 10.757812 302.191406 13.847656 297.90625 17.464844 293.996094 L 17.652344 293.792969 L 17.734375 293.710938 L 17.84375 293.585938 L 18.027344 293.390625 L 18.09375 293.324219 L 18.214844 293.199219 L 18.402344 293.003906 L 18.457031 292.941406 L 18.585938 292.8125 L 18.773438 292.617188 L 18.828125 292.5625 L 18.964844 292.421875 L 19.535156 291.851562 L 19.582031 291.808594 L 19.730469 291.660156 L 20.3125 291.09375 L 20.339844 291.066406 L 20.507812 290.90625 L 20.703125 290.71875 L 20.726562 290.699219 C 21.117188 290.335938 21.507812 289.972656 21.90625 289.617188 L 21.910156 289.609375 C 22.835938 288.777344 23.792969 287.964844 24.78125 287.171875 L 24.84375 287.121094 L 25.199219 286.835938 L 25.273438 286.773438 L 26.375 285.921875 L 26.492188 285.839844 L 26.597656 285.753906 L 26.820312 285.589844 L 26.925781 285.511719 L 27.042969 285.421875 L 27.269531 285.253906 L 27.367188 285.183594 L 27.496094 285.089844 L 27.722656 284.925781 L 27.8125 284.867188 L 27.953125 284.761719 L 28.179688 284.597656 L 28.253906 284.546875 L 28.410156 284.4375 L 28.640625 284.277344 L 28.703125 284.230469 L 28.867188 284.117188 L 29.101562 283.953125 L 29.160156 283.917969 L 29.570312 283.636719 L 29.617188 283.609375 L 29.804688 283.480469 L 30.039062 283.320312 L 30.074219 283.300781 L 30.277344 283.167969 L 30.511719 283.007812 L 30.539062 282.996094 L 30.75 282.855469 L 30.992188 282.699219 L 31.003906 282.691406 L 31.230469 282.546875 Z M 134.4375 251.710938 L 46.980469 307.023438 L 46.890625 307.078125 L 46.808594 307.132812 L 46.722656 307.1875 L 46.707031 307.195312 L 46.632812 307.242188 L 46.550781 307.296875 L 46.464844 307.351562 L 46.441406 307.367188 L 46.296875 307.464844 L 46.210938 307.519531 L 46.179688 307.539062 L 46.128906 307.574219 L 46.042969 307.632812 L 45.960938 307.691406 L 45.917969 307.71875 L 45.792969 307.800781 L 45.707031 307.859375 L 45.65625 307.894531 L 45.625 307.914062 L 45.542969 307.976562 L 45.460938 308.03125 L 45.394531 308.074219 L 45.375 308.085938 L 45.296875 308.144531 L 45.210938 308.203125 L 45.140625 308.253906 L 45.132812 308.261719 L 45.046875 308.320312 L 44.96875 308.378906 L 44.882812 308.433594 L 44.882812 308.4375 L 44.804688 308.496094 L 44.71875 308.550781 L 44.640625 308.613281 L 44.632812 308.621094 L 44.5625 308.671875 L 44.480469 308.726562 L 44.398438 308.789062 L 44.378906 308.804688 L 44.324219 308.851562 L 44.238281 308.910156 L 43.765625 309.269531 L 43.6875 309.332031 L 43.527344 309.453125 L 43.449219 309.515625 L 43.292969 309.636719 L 43.21875 309.703125 L 43.152344 309.753906 L 43.140625 309.761719 L 43.0625 309.824219 L 42.984375 309.890625 L 42.605469 310.203125 L 42.527344 310.261719 L 42.449219 310.328125 L 42.4375 310.335938 L 42.375 310.390625 L 41.851562 310.839844 L 134.4375 369.394531 Z M 675.582031 369.394531 L 768.167969 310.839844 L 768.089844 310.773438 L 768.050781 310.734375 L 768.015625 310.707031 L 767.941406 310.648438 L 767.867188 310.582031 L 767.816406 310.535156 L 767.792969 310.515625 L 767.71875 310.453125 L 767.640625 310.390625 L 767.582031 310.335938 L 767.566406 310.324219 L 767.417969 310.199219 L 767.347656 310.140625 L 767.339844 310.136719 L 767.261719 310.070312 L 767.1875 310.011719 L 767.109375 309.949219 L 767.109375 309.945312 L 767.035156 309.882812 L 766.960938 309.824219 L 766.878906 309.761719 L 766.871094 309.75 L 766.804688 309.695312 L 766.726562 309.636719 L 766.644531 309.574219 L 766.625 309.5625 L 766.570312 309.515625 L 766.492188 309.453125 L 766.410156 309.394531 L 766.382812 309.371094 L 766.332031 309.332031 L 766.257812 309.269531 L 766.175781 309.210938 L 766.136719 309.175781 L 766.097656 309.148438 L 766.019531 309.089844 L 765.9375 309.027344 L 765.886719 308.988281 L 765.859375 308.96875 L 765.78125 308.910156 L 765.699219 308.851562 L 765.640625 308.804688 L 765.617188 308.789062 L 765.535156 308.726562 L 765.457031 308.667969 L 765.386719 308.621094 L 765.378906 308.609375 L 765.296875 308.550781 L 765.214844 308.496094 L 765.132812 308.433594 L 765.050781 308.378906 L 764.96875 308.316406 L 764.875 308.253906 L 764.804688 308.203125 L 764.722656 308.144531 L 764.644531 308.085938 L 764.621094 308.074219 L 764.558594 308.03125 L 764.472656 307.96875 L 764.390625 307.914062 L 764.363281 307.894531 L 764.308594 307.859375 L 764.226562 307.800781 L 764.140625 307.746094 L 764.105469 307.71875 L 764.058594 307.691406 L 763.972656 307.632812 L 763.890625 307.574219 L 763.835938 307.539062 L 763.804688 307.519531 L 763.722656 307.464844 L 763.636719 307.410156 L 763.570312 307.367188 L 763.550781 307.351562 L 763.46875 307.296875 L 763.382812 307.242188 L 763.308594 307.195312 L 763.292969 307.1875 L 763.210938 307.132812 L 763.039062 307.023438 L 675.582031 251.710938 Z M 343.382812 119.566406 L 466.640625 119.566406 L 425.535156 93.578125 C 419.101562 89.5 412.042969 87.464844 405.007812 87.464844 C 397.976562 87.464844 390.921875 89.507812 384.484375 93.578125 Z M 669.703125 407.546875 C 669.105469 407.996094 668.46875 408.398438 667.800781 408.746094 L 502.566406 513.25 L 780.527344 689.039062 C 780.722656 687.457031 780.828125 685.855469 780.828125 684.226562 L 780.828125 339.425781 C 780.828125 338.710938 780.808594 338.003906 780.777344 337.300781 L 669.707031 407.546875 Z M 516.941406 148.757812 L 163.628906 148.757812 L 163.628906 387.851562 L 381.441406 525.605469 C 388.828125 530.28125 396.933594 532.617188 405.007812 532.617188 C 413.089844 532.617188 421.1875 530.28125 428.578125 525.605469 L 646.390625 387.851562 L 646.390625 148.757812 Z M 29.492188 689.027344 L 307.449219 513.25 L 141.28125 408.160156 L 141.078125 408.027344 L 29.242188 337.300781 C 29.210938 338 29.191406 338.710938 29.191406 339.425781 L 29.191406 684.226562 C 29.191406 685.851562 29.292969 687.457031 29.492188 689.027344 Z M 334.675781 530.46875 L 43.902344 714.359375 C 49.449219 718.726562 56.222656 721.589844 63.597656 722.34375 L 63.675781 722.351562 L 64.082031 722.390625 L 64.304688 722.40625 L 64.566406 722.429688 L 64.625 722.4375 L 64.941406 722.460938 L 65.054688 722.464844 L 65.261719 722.476562 L 65.542969 722.492188 L 65.578125 722.492188 L 65.898438 722.511719 L 66.027344 722.515625 L 66.21875 722.519531 L 66.519531 722.53125 L 66.539062 722.53125 L 66.859375 722.535156 L 67.011719 722.539062 L 67.183594 722.539062 L 67.507812 722.542969 L 742.511719 722.542969 L 742.835938 722.539062 L 743.003906 722.539062 L 743.15625 722.535156 L 743.480469 722.53125 L 743.5 722.53125 L 743.800781 722.519531 L 743.984375 722.515625 L 744.121094 722.511719 L 744.441406 722.492188 L 744.476562 722.492188 L 744.757812 722.476562 L 744.964844 722.464844 L 745.078125 722.460938 L 745.394531 722.4375 L 745.449219 722.429688 L 745.710938 722.40625 L 745.933594 722.390625 L 746.34375 722.351562 L 746.417969 722.34375 C 753.792969 721.585938 760.5625 718.71875 766.117188 714.359375 L 475.339844 530.46875 L 444.082031 550.234375 C 431.890625 557.949219 418.457031 561.804688 405.007812 561.804688 C 391.5625 561.804688 378.132812 557.949219 365.9375 550.234375 Z M 334.675781 530.46875 " fill-opacity="1" fill-rule="nonzero"/></g><path fill="#ffffff" d="M 490.613281 376.207031 L 514.917969 376.207031 C 507.335938 391.726562 495.671875 403.859375 479.917969 412.648438 C 461.949219 422.722656 439.972656 427.777344 414.070312 427.777344 C 388.984375 427.777344 367.359375 423.542969 349.121094 415.058594 C 330.878906 406.542969 317.304688 394.019531 308.4375 377.492188 C 299.535156 360.921875 295.097656 342.917969 295.097656 323.390625 C 295.097656 302 300.15625 282.085938 310.269531 263.613281 C 320.339844 245.175781 334.1875 231.332031 351.726562 222.078125 C 369.269531 212.816406 389.335938 208.191406 411.890625 208.191406 C 431.027344 208.191406 448.0625 211.921875 462.917969 219.351562 C 477.816406 226.820312 489.210938 237.398438 497.070312 251.128906 C 504.925781 264.855469 508.851562 279.832031 508.851562 296.085938 C 508.851562 315.492188 502.90625 332.996094 490.960938 348.671875 C 476.023438 368.429688 456.851562 378.308594 433.480469 378.308594 C 427.179688 378.308594 422.433594 377.21875 419.242188 375.042969 C 416.054688 372.824219 413.957031 369.632812 412.863281 365.394531 C 403.917969 373.988281 393.574219 378.308594 381.90625 378.308594 C 369.304688 378.308594 358.84375 373.953125 350.519531 365.277344 C 342.195312 356.566406 338.035156 345.011719 338.035156 330.585938 C 338.035156 312.734375 343.050781 296.480469 353.046875 281.734375 C 365.21875 263.808594 380.78125 254.859375 399.761719 254.859375 C 413.253906 254.859375 423.253906 260.035156 429.667969 270.378906 L 432.507812 257.660156 L 462.574219 257.660156 L 445.339844 339.257812 C 444.289062 344.433594 443.746094 347.777344 443.746094 349.292969 C 443.746094 351.160156 444.175781 352.597656 445.070312 353.53125 C 445.925781 354.507812 446.972656 354.972656 448.179688 354.972656 C 451.835938 354.972656 456.542969 352.757812 462.335938 348.359375 C 470.078125 342.601562 476.339844 334.820312 481.121094 325.140625 C 485.90625 315.417969 488.316406 305.34375 488.316406 294.921875 C 488.316406 276.253906 481.550781 260.621094 468.050781 248.058594 C 454.519531 235.492188 435.65625 229.191406 411.429688 229.191406 C 390.851562 229.191406 373.390625 233.394531 359.078125 241.792969 C 344.765625 250.234375 333.988281 262.058594 326.757812 277.34375 C 319.484375 292.585938 315.867188 308.496094 315.867188 325.023438 C 315.867188 341.085938 319.910156 355.671875 328 368.855469 C 336.089844 382.042969 347.445312 391.648438 362.070312 397.714844 C 376.65625 403.742188 393.378906 406.773438 412.242188 406.773438 C 430.367188 406.773438 446 404.210938 459.03125 399.113281 C 472.097656 394.019531 482.640625 386.398438 490.613281 376.207031 Z M 367.671875 329.378906 C 367.671875 339.023438 369.617188 346.144531 373.507812 350.691406 C 377.433594 355.242188 382.257812 357.539062 388.011719 357.539062 C 392.328125 357.539062 396.375 356.488281 400.148438 354.351562 C 403.027344 352.832031 405.867188 350.421875 408.664062 347.15625 C 412.710938 342.527344 416.171875 335.796875 419.089844 326.890625 C 422.003906 318.019531 423.445312 309.738281 423.445312 302.039062 C 423.445312 293.480469 421.460938 286.867188 417.492188 282.285156 C 413.488281 277.6875 408.472656 275.394531 402.441406 275.394531 C 395.910156 275.394531 389.878906 277.925781 384.355469 282.980469 C 378.835938 288.039062 374.671875 295.234375 371.875 304.570312 C 369.070312 313.902344 367.671875 322.183594 367.671875 329.378906 Z M 367.671875 329.378906 " fill-opacity="1" fill-rule="nonzero"/></svg>