<svg xmlns="http://www.w3.org/2000/svg" xmlns:xlink="http://www.w3.org/1999/xlink" width="1080" zoomAndPan="magnify" viewBox="0 0 810 809.999993" height="1080" preserveAspectRatio="xMidYMid meet" version="1.0"><metadata><ContainsAiGeneratedContent>Yes</ContainsAiGeneratedContent></metadata><rect x="-81" width="972" fill="#ffffff" y="-80.999999" height="971.999992" fill-opacity="1"/><rect x="-81" width="972" fill="#ffffff" y="-80.999999" height="971.999992" fill-opacity="1"/><path fill="#ffffff" d="M 397.417969 445.820312 C 368.730469 415.230469 345.859375 390.242188 343.585938 376 C 341.449219 362.609375 340.265625 347.558594 343.558594 330.050781 C 346.042969 316.835938 354.898438 301.566406 367.878906 284.054688 C 367.679688 284.324219 367.628906 284.507812 367.632812 284.503906 L 367.632812 284.5 C 367.644531 284.449219 367.738281 283.96875 367.523438 283.136719 L 367.523438 283.132812 C 363.539062 267.492188 347.140625 237.417969 317.828125 191.105469 L 324.539062 195.652344 C 309.359375 192.824219 287.519531 194.089844 258.359375 200.339844 C 257.273438 200.570312 256.15625 200.625 255.050781 200.492188 C 256.582031 200.671875 257.492188 200.320312 257.289062 200.386719 C 253.925781 201.457031 240.558594 210.917969 218.429688 234.710938 C 204.488281 249.699219 205.339844 293.882812 234.082031 372.898438 C 245.957031 405.539062 257.007812 422.28125 263.367188 431.945312 C 264.046875 432.980469 264.695312 433.964844 265.300781 434.902344 C 296.0625 482.535156 318.195312 503.746094 332.582031 517.558594 C 333.789062 518.71875 335.140625 520.015625 336.253906 521.097656 C 340.273438 525 340.371094 531.417969 336.46875 535.4375 C 332.566406 539.457031 326.148438 539.554688 322.128906 535.652344 C 321.082031 534.636719 319.722656 533.332031 318.535156 532.191406 C 303.464844 517.722656 280.160156 495.300781 248.261719 445.90625 C 247.695312 445.03125 247.132812 444.171875 246.425781 443.097656 C 239.582031 432.703125 227.632812 414.5 215.019531 379.832031 C 187.503906 304.183594 179.753906 246.507812 203.578125 220.894531 C 224.96875 197.902344 241.832031 184.023438 251.128906 181.058594 C 252.578125 180.597656 254.84375 180.046875 257.421875 180.347656 L 254.109375 180.503906 C 284.238281 174.046875 309.175781 172.15625 328.257812 175.714844 C 331.027344 176.230469 333.460938 177.878906 334.96875 180.257812 C 363.753906 225.742188 382.234375 258.71875 387.179688 278.125 C 388.128906 281.84375 388.269531 285.929688 387.199219 289.847656 C 386.609375 291.996094 385.636719 294.160156 384.175781 296.132812 C 371.359375 313.417969 365.054688 325.484375 363.492188 333.796875 C 360.785156 348.191406 361.6875 360.710938 363.617188 372.804688 C 364.617188 379.085938 380.269531 397.882812 412.214844 431.945312 C 416.046875 436.03125 415.839844 442.449219 411.753906 446.28125 C 407.667969 450.109375 401.25 449.90625 397.417969 445.820312 Z M 397.417969 445.820312 " fill-opacity="0.988" fill-rule="nonzero"/><path fill="#ffffff" d="M 394.109375 442.535156 C 424.917969 470.988281 450.082031 493.664062 464.34375 495.828125 C 477.746094 497.859375 492.808594 498.929688 510.289062 495.503906 C 523.484375 492.914062 538.683594 483.941406 556.097656 470.824219 L 556.09375 470.828125 C 555.828125 471.027344 555.644531 471.078125 555.652344 471.078125 C 555.703125 471.0625 556.183594 470.964844 557.015625 471.171875 L 557.019531 471.171875 C 572.695312 475.039062 602.894531 491.207031 649.425781 520.15625 L 644.828125 513.480469 C 647.777344 528.640625 646.679688 550.488281 640.65625 579.695312 C 640.429688 580.785156 640.386719 581.902344 640.523438 583.007812 C 640.332031 581.476562 640.679688 580.5625 640.617188 580.769531 C 639.570312 584.140625 630.210938 597.578125 606.59375 619.886719 L 606.59375 619.890625 C 591.710938 633.949219 547.523438 633.4375 468.289062 605.304688 C 435.558594 593.683594 418.730469 582.761719 409.015625 576.476562 C 407.976562 575.800781 406.988281 575.160156 406.046875 574.5625 L 406.042969 574.5625 C 358.175781 544.171875 336.796875 522.203125 322.871094 507.921875 C 321.703125 506.726562 320.394531 505.386719 319.304688 504.277344 C 315.371094 500.289062 308.953125 500.242188 304.960938 504.175781 C 300.972656 508.105469 300.925781 514.527344 304.859375 518.515625 C 305.882812 519.554688 307.199219 520.902344 308.347656 522.082031 C 322.933594 537.039062 345.535156 560.171875 395.171875 591.6875 C 396.050781 592.246094 396.914062 592.804688 397.996094 593.503906 C 408.441406 600.265625 426.738281 612.074219 461.5 624.417969 C 537.359375 651.351562 595.089844 658.65625 620.523438 634.632812 C 643.351562 613.070312 657.097656 596.097656 659.988281 586.777344 C 660.441406 585.324219 660.972656 583.054688 660.652344 580.480469 L 660.519531 583.792969 C 666.746094 553.617188 668.445312 528.667969 664.738281 509.613281 C 664.203125 506.84375 662.535156 504.425781 660.140625 502.9375 C 614.4375 474.5 581.320312 456.273438 561.875 451.480469 L 561.878906 451.480469 C 558.152344 450.5625 554.066406 450.453125 550.152344 451.550781 L 550.15625 451.550781 C 548.007812 452.15625 545.851562 453.148438 543.894531 454.621094 L 543.890625 454.625 C 526.707031 467.570312 514.6875 473.96875 506.386719 475.597656 C 492.015625 478.414062 479.488281 477.609375 467.382812 475.773438 C 461.09375 474.820312 442.175781 459.3125 407.867188 427.632812 C 403.753906 423.832031 397.335938 424.089844 393.539062 428.203125 C 389.738281 432.316406 389.992188 438.734375 394.109375 442.535156 Z M 394.109375 442.535156 " fill-opacity="0.988" fill-rule="nonzero"/><path fill="#ffffff" d="M 415.566406 19.691406 L 362.257812 23.277344 C 290.660156 34.609375 228.617188 60.492188 176.128906 100.925781 C 120.035156 146.898438 80.71875 196.335938 58.175781 249.238281 C 31.039062 313 19.304688 372.855469 22.972656 428.804688 C 26.441406 474.382812 30.851562 503.734375 36.199219 516.871094 C 45.695312 549.679688 61.726562 585.320312 84.289062 623.789062 C 85.636719 618.34375 88.296875 612.570312 92.273438 606.472656 C 60.132812 551.460938 42.339844 493.972656 38.898438 434.007812 C 35.148438 388.394531 43.125 337.191406 62.832031 280.398438 C 103.167969 175.804688 176.964844 102.007812 284.21875 59.007812 C 396.386719 19.617188 505.125 29.886719 610.441406 89.816406 C 713.511719 157.335938 773.054688 247.863281 789.066406 361.394531 L 792.507812 412.542969 C 791.90625 436.273438 789.625 459.117188 785.65625 481.074219 C 785.777344 493.164062 776.039062 524.105469 756.4375 573.90625 C 728.578125 632.609375 687.15625 681.738281 632.175781 721.300781 C 579.585938 758.464844 519.027344 780.472656 450.496094 787.324219 C 425.570312 790.730469 395.664062 790.132812 360.78125 785.53125 C 314.183594 778.273438 272.292969 764.28125 235.109375 743.5625 C 223.46875 747.277344 216.234375 749.277344 213.40625 749.558594 C 277.773438 790.371094 357.183594 808.273438 451.636719 803.269531 C 492.742188 798.03125 521.292969 792.152344 537.289062 785.628906 C 559.03125 778.617188 579.710938 769.988281 599.332031 759.746094 C 638.570312 739.257812 673.558594 712.304688 704.300781 678.882812 C 714.152344 671.785156 733.984375 643.84375 763.789062 595.058594 C 774.308594 575.148438 782.941406 554.507812 789.683594 533.140625 C 803.167969 490.40625 809.097656 444.761719 807.46875 396.203125 C 804.964844 345.976562 794.78125 300.242188 776.921875 259.003906 C 752.523438 209.160156 735.945312 180.527344 727.1875 173.109375 C 713.710938 155.613281 698.617188 139.179688 681.90625 123.808594 C 648.066406 92.648438 610.261719 68.234375 568.480469 50.566406 C 524.875 31.082031 473.902344 20.792969 415.566406 19.691406 Z M 415.566406 19.691406 " fill-opacity="0.988" fill-rule="nonzero"/><path fill="#ffffff" d="M 80.96875 586.335938 L 79.4375 590.648438 C 57.425781 651.328125 33.859375 713.480469 8.734375 777.113281 C 4.324219 792.371094 5.238281 801.707031 11.476562 805.132812 C 15.949219 809.683594 27.316406 810.675781 45.570312 808.109375 C 130.296875 788.421875 200.335938 770.386719 255.695312 754.007812 C 250.261719 751.496094 243.382812 748.019531 235.066406 743.570312 C 172.828125 761.042969 108.609375 777.355469 42.40625 792.511719 C 30.214844 794.386719 23.328125 794.4375 21.75 792.675781 C 21.902344 788.339844 22.925781 783.84375 24.824219 779.183594 C 43.972656 731.355469 66.125 673.230469 91.28125 604.816406 C 88.457031 600.125 85.019531 593.964844 80.96875 586.335938 Z M 80.96875 586.335938 " fill-opacity="0.988" fill-rule="nonzero"/><path fill="#ffffff" d="M 25.257812 591.199219 C 25.257812 591.199219 25.554688 591.539062 25.667969 591.648438 C 25.742188 591.648438 25.78125 591.722656 25.855469 591.761719 C 25.855469 591.761719 25.78125 591.761719 25.78125 591.761719 C 25.816406 591.761719 25.855469 591.835938 25.894531 591.835938 C 25.96875 591.835938 26.042969 591.875 26.117188 591.910156 C 26.117188 591.910156 26.117188 591.910156 26.15625 591.910156 C 26.304688 591.949219 26.453125 591.988281 26.640625 592.0625 C 26.492188 591.988281 26.304688 591.949219 26.082031 591.835938 C 26.003906 591.722656 25.742188 591.5 25.21875 591.199219 Z M 25.257812 591.199219 " fill-opacity="1" fill-rule="nonzero"/><path fill="#ffffff" d="M 570.042969 227.1875 C 568.882812 218.796875 572.214844 204.003906 560.34375 203.21875 C 491.058594 202.691406 421.777344 202.167969 352.496094 201.644531 C 243.367188 201.570312 133.710938 198.535156 24.84375 199.960938 C 23.609375 200.410156 22.597656 201.15625 21.773438 202.09375 C 16.867188 201.421875 11.363281 205.050781 11.585938 210.632812 C 5.632812 326.277344 3.910156 442.148438 6.382812 557.945312 C 6.71875 560.902344 6.757812 564.160156 6.71875 567.570312 C 5.855469 569.441406 5.59375 571.5 6.121094 573.488281 C 6.230469 573.898438 6.457031 574.234375 6.605469 574.609375 C 6.34375 588.652344 6.832031 603.222656 21.023438 608.464844 C 32.183594 611.421875 43.945312 608.164062 55.292969 607.867188 C 76.226562 606.21875 97.125 604.53125 118.058594 602.882812 C 202.246094 596.179688 286.394531 589.515625 370.582031 582.8125 C 420.617188 578.617188 470.761719 575.285156 520.757812 570.640625 C 545.476562 567.382812 544.988281 537.460938 549.820312 518.546875 C 568.730469 422.789062 575.734375 324.667969 570.042969 227.1875 Z M 22.710938 442.484375 C 22.898438 379.269531 24.320312 316.015625 26.980469 252.839844 C 27.503906 240.742188 28.066406 228.644531 28.664062 216.585938 C 97.761719 217.113281 166.894531 217.636719 235.988281 218.160156 C 305.269531 218.683594 374.554688 219.207031 443.835938 219.734375 C 476.902344 219.996094 509.972656 220.21875 543.042969 220.480469 C 537.910156 223.777344 532.890625 227.222656 527.761719 230.554688 C 500.421875 248.195312 474.433594 267.78125 447.957031 286.617188 C 414.4375 310.699219 380.917969 334.78125 347.402344 358.859375 C 342.984375 361.820312 338.636719 364.925781 334.371094 368.109375 C 335.71875 358.898438 335.457031 349.683594 330.0625 342.71875 C 325.269531 337.476562 317.03125 336.875 311.1875 340.621094 C 301.226562 347.960938 295.796875 360.019531 290.476562 370.882812 C 290.027344 372.003906 289.578125 373.128906 289.128906 374.253906 C 285.722656 363.617188 280.367188 353.617188 273.25 345.039062 C 267.707031 339.3125 259.84375 326.988281 250.929688 333.394531 C 248.757812 334.890625 247.484375 337.589844 247.484375 340.210938 C 246.136719 354.890625 244.9375 371.667969 246.324219 387.847656 C 231.867188 378.972656 217.039062 365.863281 203.292969 351.707031 C 155.246094 307.441406 105.0625 263.175781 49.898438 228.308594 C 40.949219 226.585938 36.15625 239.992188 44.355469 244.375 C 90.382812 276.695312 128.429688 306.917969 171.875 346.238281 C 175.207031 349.046875 178.539062 352.082031 181.910156 355.226562 C 130.828125 404.660156 84.839844 459.300781 42.484375 516.300781 C 36.042969 525.027344 29.75 533.828125 23.535156 542.664062 C 22.933594 509.933594 22.523438 469 22.710938 442.449219 Z M 30.238281 592.324219 C 29.300781 592.324219 28.363281 592.285156 27.464844 592.175781 C 27.203125 592.136719 26.941406 592.0625 26.679688 592.023438 C 26.828125 592.097656 26.980469 592.136719 27.054688 592.175781 C 27.015625 592.175781 26.941406 592.175781 26.90625 592.175781 C 26.980469 592.175781 26.980469 592.175781 27.054688 592.175781 C 27.277344 592.285156 26.828125 592.175781 26.191406 591.875 C 26.191406 591.875 26.15625 591.875 26.117188 591.875 C 26.117188 591.910156 26.042969 591.875 25.894531 591.800781 C 25.667969 591.722656 25.445312 591.648438 25.292969 591.539062 C 25.519531 591.613281 25.59375 591.648438 25.78125 591.6875 C 25.78125 591.6875 25.707031 591.648438 25.667969 591.613281 C 25.292969 591.386719 24.917969 591.125 24.621094 590.824219 C 24.882812 590.976562 25.070312 591.085938 25.21875 591.164062 C 25.070312 590.976562 24.882812 590.75 24.730469 590.453125 C 24.546875 586.632812 24.320312 580.339844 24.132812 572.4375 C 28.441406 565.996094 32.820312 559.703125 37.203125 553.414062 C 42.332031 561.128906 64.015625 589.363281 69.484375 577.867188 C 71.46875 573.484375 66.1875 571.015625 63.792969 568.242188 C 60.570312 565.433594 50.910156 554.238281 51.695312 554.984375 C 48.589844 551.878906 47.203125 546.671875 43.269531 544.648438 C 46.117188 540.644531 49.039062 536.710938 51.921875 532.777344 C 64.878906 549.519531 77.800781 566.332031 90.90625 582.921875 C 92.140625 584.121094 93.265625 585.808594 94.464844 587.34375 C 73.042969 589.101562 51.621094 590.824219 30.164062 592.324219 Z M 105.847656 586.445312 C 105.847656 583.746094 103.863281 580.675781 101.917969 578.390625 C 95.773438 569.929688 89.257812 561.726562 82.929688 553.414062 C 75.027344 543.1875 67.125 533.003906 59.222656 522.777344 C 61.394531 519.859375 63.644531 516.972656 65.851562 514.054688 C 82.890625 535.289062 99.820312 556.558594 117.121094 577.566406 C 119.21875 580.078125 121.316406 582.585938 123.488281 585.058594 C 117.609375 585.507812 111.765625 585.996094 105.886719 586.480469 Z M 550.082031 394.4375 C 546.074219 435.144531 541.542969 472.671875 533.265625 512.78125 C 503.867188 458.101562 466.980469 407.46875 425.371094 361.480469 C 422.789062 358.597656 420.128906 355.113281 415.859375 355.265625 C 408.371094 355.039062 404.214844 364.964844 409.71875 370.132812 C 456.457031 420.691406 492.820312 472.96875 526.601562 536.484375 C 526.898438 537.011719 527.238281 537.496094 527.613281 537.910156 C 526.75 541.429688 525.964844 544.875 525.066406 548.433594 C 523.34375 551.765625 523.15625 553.75 507.164062 554.5 C 392.042969 563.636719 276.921875 572.8125 161.761719 581.949219 C 163.109375 580.714844 163.898438 578.878906 163.371094 577.007812 C 161.761719 574.011719 157.417969 568.503906 153.824219 568.394531 C 149.402344 568.242188 146.96875 574.160156 150.191406 577.15625 C 152.175781 578.65625 153.785156 581.089844 155.957031 582.398438 C 149.367188 582.921875 142.738281 583.449219 136.144531 583.972656 C 135.546875 582.363281 134.5 580.789062 133.335938 579.515625 C 128.320312 572.738281 123.074219 566.109375 117.832031 559.515625 C 102.742188 541.503906 88.996094 521.617188 72.96875 504.652344 C 77.613281 498.660156 82.292969 492.707031 87.011719 486.75 C 100.082031 505.664062 113.003906 524.726562 126.371094 543.414062 C 130.304688 547.832031 132.664062 554.613281 137.980469 557.34375 C 142.625 558.804688 146.933594 553.226562 144.347656 549.070312 C 136.933594 537.570312 129.253906 526.222656 121.503906 514.953125 C 113.339844 503.042969 105.136719 491.207031 96.9375 479.335938 C 96.410156 478.4375 95.585938 477.765625 94.726562 477.238281 C 125.433594 439.566406 158.242188 403.3125 193.933594 366.574219 C 211.195312 383.316406 229.660156 400.992188 250.40625 410.015625 C 254.5625 424.472656 262.164062 437.28125 275.386719 446.117188 C 296.808594 454.917969 320.25 415.183594 328.152344 394.0625 C 332.046875 391.140625 335.980469 388.257812 339.988281 385.5625 C 385.488281 352.867188 430.992188 320.175781 476.492188 287.480469 C 498.214844 272.089844 523.191406 253.851562 539.183594 240.96875 C 543.714844 237.410156 548.285156 233.890625 552.777344 230.292969 C 555.8125 284.972656 554.988281 339.835938 550.15625 394.363281 Z M 550.082031 394.4375 " fill-opacity="1" fill-rule="nonzero"/><path fill="#ffffff" d="M 775.230469 291.824219 C 772.011719 288.714844 766.953125 289.351562 762.796875 288.605469 C 723.324219 286.132812 683.628906 288.191406 644.417969 293.285156 C 636.554688 295.457031 622.472656 292.460938 620.710938 303.058594 C 619.515625 308.976562 625.878906 314.371094 631.574219 312.609375 C 662.433594 307.589844 703.890625 304.296875 741.9375 305.121094 C 751.113281 305.230469 760.328125 305.941406 769.5 305.570312 C 771.636719 305.570312 773.695312 304.707031 775.195312 303.210938 C 778.265625 300.101562 778.300781 294.933594 775.195312 291.824219 Z M 775.230469 291.824219 " fill-opacity="1" fill-rule="nonzero"/><path fill="#ffffff" d="M 786.652344 351.296875 C 782.347656 348.335938 776.542969 349.722656 771.636719 349.835938 C 729.917969 355.152344 688.460938 362.34375 646.890625 368.445312 C 635.992188 371.480469 640.484375 388.183594 651.535156 385.226562 C 694.902344 377.808594 738.980469 373.539062 781.933594 363.992188 C 787.777344 362.679688 792.347656 355.75 786.691406 351.296875 Z M 786.652344 351.296875 " fill-opacity="1" fill-rule="nonzero"/><path fill="#ffffff" d="M 794.257812 455.96875 C 749.503906 454.433594 704.449219 462.445312 661.90625 476.078125 C 649.324219 480.199219 637.003906 485.027344 624.871094 490.308594 C 622.921875 491.433594 621.460938 493.34375 620.863281 495.515625 C 618.652344 502.707031 627.230469 509.371094 633.671875 505.363281 C 679.472656 484.503906 740.964844 472.671875 796.277344 472.332031 C 808.226562 471.472656 806.015625 455.070312 794.257812 455.96875 Z M 794.257812 455.96875 " fill-opacity="1" fill-rule="nonzero"/></svg>