<svg xmlns="http://www.w3.org/2000/svg" xmlns:xlink="http://www.w3.org/1999/xlink" width="64" zoomAndPan="magnify" viewBox="0 0 48 48" height="64" preserveAspectRatio="xMidYMid meet" version="1.0"><defs><g/><clipPath id="5fc79922b1"><path d="M 2 0.367188 L 46 0.367188 L 46 46.652344 L 2 46.652344 Z M 2 0.367188 " clip-rule="nonzero"/></clipPath><clipPath id="149a18b5b4"><path d="M 30.464844 0.367188 L 6.734375 0.367188 C 5.3125 0.367188 3.964844 1.015625 3.082031 2.132812 C 2.195312 3.246094 1.871094 4.703125 2.191406 6.089844 L 10.320312 40.929688 C 11.105469 44.28125 14.09375 46.652344 17.535156 46.652344 L 41.265625 46.652344 C 42.6875 46.652344 44.035156 46.003906 44.917969 44.886719 C 45.804688 43.773438 46.128906 42.316406 45.808594 40.929688 L 37.679688 6.089844 C 36.894531 2.738281 33.90625 0.367188 30.464844 0.367188 Z M 30.464844 0.367188 " clip-rule="nonzero"/></clipPath></defs><g clip-path="url(#5fc79922b1)"><g clip-path="url(#149a18b5b4)"><path fill="#131313" d="M 0.855469 0.367188 L 47.144531 0.367188 L 47.144531 46.652344 L 0.855469 46.652344 Z M 0.855469 0.367188 " fill-opacity="1" fill-rule="nonzero"/></g></g><g fill="#fa6ee3" fill-opacity="1"><g transform="translate(9.02883, 33.290484)"><g><path d="M 2 0 C 2.101562 -0.738281 2.15625 -1.394531 2.15625 -1.96875 C 2.15625 -2.539062 2.148438 -2.929688 2.140625 -3.140625 C 2.140625 -3.359375 2.132812 -3.570312 2.125 -3.78125 C 2.113281 -3.988281 2.097656 -4.1875 2.078125 -4.375 L 2.03125 -4.828125 L 7.328125 -4.828125 C 7.296875 -4.367188 7.28125 -3.988281 7.28125 -3.6875 L 7.234375 -2.921875 C 7.234375 -2.691406 7.234375 -2.253906 7.234375 -1.609375 C 7.234375 -0.972656 7.265625 -0.4375 7.328125 0 Z M 2 0 "/></g></g></g><g fill="#fa6ee3" fill-opacity="1"><g transform="translate(17.26732, 33.290484)"><g><path d="M 7.265625 -18.421875 C 8.628906 -19.117188 10.023438 -19.46875 11.453125 -19.46875 C 12.878906 -19.46875 14.101562 -19.242188 15.125 -18.796875 C 16.15625 -18.359375 17.0625 -17.722656 17.84375 -16.890625 C 19.539062 -15.054688 20.390625 -12.726562 20.390625 -9.90625 C 20.390625 -6.820312 19.46875 -4.335938 17.625 -2.453125 C 15.863281 -0.628906 13.664062 0.28125 11.03125 0.28125 C 8.707031 0.28125 6.796875 -0.320312 5.296875 -1.53125 C 3.617188 -2.894531 2.78125 -4.78125 2.78125 -7.1875 L 2.78125 -27.21875 L 7.265625 -27.21875 Z M 7.265625 -7.234375 C 7.265625 -5.085938 8.597656 -4.015625 11.265625 -4.015625 C 12.566406 -4.015625 13.664062 -4.59375 14.5625 -5.75 C 15.457031 -6.914062 15.90625 -8.367188 15.90625 -10.109375 C 15.90625 -11.867188 15.429688 -13.191406 14.484375 -14.078125 C 13.628906 -14.867188 12.484375 -15.265625 11.046875 -15.265625 C 10.179688 -15.265625 9.222656 -14.972656 8.171875 -14.390625 C 7.847656 -14.210938 7.546875 -14.007812 7.265625 -13.78125 Z M 7.265625 -7.234375 "/></g></g></g></svg>