<svg xmlns="http://www.w3.org/2000/svg" xmlns:xlink="http://www.w3.org/1999/xlink" width="64" zoomAndPan="magnify" viewBox="0 0 48 48" height="64" preserveAspectRatio="xMidYMid meet" version="1.0"><defs><g/><clipPath id="23b27d17db"><path d="M 0.488281 0 L 47.507812 0 L 47.507812 47.019531 L 0.488281 47.019531 Z M 0.488281 0 " clip-rule="nonzero"/></clipPath><clipPath id="01aa49e521"><path d="M 1.59375 0 L 46.40625 0 L 46.40625 47.019531 L 1.59375 47.019531 Z M 1.59375 0 " clip-rule="nonzero"/></clipPath><clipPath id="0db602e3bb"><path d="M 30.660156 0 L 6.367188 0 C 4.945312 0 3.597656 0.648438 2.714844 1.765625 C 1.828125 2.878906 1.5 4.335938 1.824219 5.722656 L 10.125 41.296875 C 10.90625 44.648438 13.894531 47.019531 17.339844 47.019531 L 41.632812 47.019531 C 43.054688 47.019531 44.402344 46.371094 45.285156 45.253906 C 46.171875 44.140625 46.5 42.683594 46.175781 41.296875 L 37.875 5.722656 C 37.09375 2.371094 34.105469 0 30.660156 0 Z M 30.660156 0 " clip-rule="nonzero"/></clipPath></defs><g clip-path="url(#23b27d17db)"><path fill="#ffffff" d="M 0.488281 0 L 47.511719 0 L 47.511719 47.019531 L 0.488281 47.019531 Z M 0.488281 0 " fill-opacity="1" fill-rule="nonzero"/><path fill="#fa6ee3" d="M 0.488281 0 L 47.511719 0 L 47.511719 47.019531 L 0.488281 47.019531 Z M 0.488281 0 " fill-opacity="1" fill-rule="nonzero"/></g><g clip-path="url(#01aa49e521)"><g clip-path="url(#0db602e3bb)"><path fill="#131313" d="M 0.488281 0 L 47.511719 0 L 47.511719 47.019531 L 0.488281 47.019531 Z M 0.488281 0 " fill-opacity="1" fill-rule="nonzero"/></g></g><g fill="#ffffff" fill-opacity="1"><g transform="translate(7.692822, 34.163266)"><g><path d="M 2.171875 0 C 2.285156 -0.8125 2.34375 -1.53125 2.34375 -2.15625 C 2.34375 -2.78125 2.335938 -3.207031 2.328125 -3.4375 C 2.328125 -3.664062 2.320312 -3.894531 2.3125 -4.125 C 2.300781 -4.351562 2.285156 -4.566406 2.265625 -4.765625 L 2.21875 -5.265625 L 7.984375 -5.265625 C 7.941406 -4.753906 7.921875 -4.34375 7.921875 -4.03125 L 7.890625 -3.1875 C 7.890625 -2.9375 7.890625 -2.460938 7.890625 -1.765625 C 7.890625 -1.066406 7.921875 -0.476562 7.984375 0 Z M 2.171875 0 "/></g></g></g><g fill="#ffffff" fill-opacity="1"><g transform="translate(16.666505, 34.163266)"><g><path d="M 7.90625 -20.0625 C 9.394531 -20.832031 10.914062 -21.21875 12.46875 -21.21875 C 14.019531 -21.21875 15.359375 -20.972656 16.484375 -20.484375 C 17.609375 -20.003906 18.59375 -19.3125 19.4375 -18.40625 C 21.289062 -16.394531 22.21875 -13.859375 22.21875 -10.796875 C 22.21875 -7.429688 21.210938 -4.722656 19.203125 -2.671875 C 17.273438 -0.691406 14.878906 0.296875 12.015625 0.296875 C 9.492188 0.296875 7.414062 -0.359375 5.78125 -1.671875 C 3.945312 -3.160156 3.03125 -5.210938 3.03125 -7.828125 L 3.03125 -29.640625 L 7.90625 -29.640625 Z M 7.90625 -7.890625 C 7.90625 -5.546875 9.359375 -4.375 12.265625 -4.375 C 13.691406 -4.375 14.890625 -5 15.859375 -6.25 C 16.835938 -7.53125 17.328125 -9.117188 17.328125 -11.015625 C 17.328125 -12.929688 16.8125 -14.375 15.78125 -15.34375 C 14.84375 -16.207031 13.59375 -16.640625 12.03125 -16.640625 C 11.09375 -16.640625 10.050781 -16.316406 8.90625 -15.671875 C 8.539062 -15.472656 8.207031 -15.253906 7.90625 -15.015625 Z M 7.90625 -7.890625 "/></g></g></g></svg>