<svg xmlns="http://www.w3.org/2000/svg" xmlns:xlink="http://www.w3.org/1999/xlink" width="1080" zoomAndPan="magnify" viewBox="0 0 810 809.999993" height="1080" preserveAspectRatio="xMidYMid meet" version="1.0"><metadata><ContainsAiGeneratedContent>Yes</ContainsAiGeneratedContent></metadata><defs><clipPath id="9e6fbfc786"><path d="M 0.136719 68.851562 L 809.863281 68.851562 L 809.863281 740.851562 L 0.136719 740.851562 Z M 0.136719 68.851562 " clip-rule="nonzero"/></clipPath></defs><rect x="-81" width="972" fill="#ffffff" y="-80.999999" height="971.999992" fill-opacity="1"/><rect x="-81" width="972" fill="#ffffff" y="-80.999999" height="971.999992" fill-opacity="1"/><g clip-path="url(#9e6fbfc786)"><path fill="#ffffff" d="M 192.203125 587.605469 C 176.964844 594.671875 160.0625 598.246094 144.203125 597.773438 C 117.902344 596.988281 81.652344 582.515625 70.519531 544.113281 C 67.527344 533.765625 56.683594 525.824219 45.203125 519.5625 C 26.351562 509.289062 4.976562 504.085938 4.976562 504.085938 C 2.222656 503.410156 0.25 500.984375 0.160156 498.136719 C 0.0664062 495.308594 1.875 492.753906 4.574219 491.894531 C 33.503906 482.859375 54.4375 483.1875 70.574219 487.953125 C 86.925781 492.769531 98.460938 502.1875 108.320312 511.789062 C 114.34375 517.648438 119.671875 523.542969 125.238281 528.214844 C 129.949219 532.175781 134.800781 535.242188 140.625 536.101562 C 147.726562 537.121094 155.445312 536.0625 163.183594 533.800781 C 146.683594 494.101562 137.578125 450.589844 137.578125 404.941406 C 137.578125 398.773438 137.742188 392.621094 138.070312 386.507812 C 124.015625 364.132812 116.914062 335.476562 116.914062 300.175781 C 116.914062 272.835938 121.1875 249.839844 129.617188 230.820312 L 133.085938 105.464844 C 133.160156 102.890625 134.785156 100.609375 137.191406 99.714844 C 139.601562 98.804688 142.320312 99.460938 144.054688 101.359375 L 205.164062 167.742188 C 216.84375 164.164062 229.710938 161.535156 243.765625 159.839844 C 303.90625 103.402344 384.816406 68.796875 473.722656 68.796875 C 545.03125 68.796875 611.175781 91.046875 665.601562 128.992188 C 665.914062 129.195312 666.207031 129.429688 666.460938 129.703125 C 668.632812 131.859375 668.925781 135.289062 667.191406 137.789062 C 666.972656 138.101562 666.734375 138.390625 666.460938 138.648438 C 666.460938 138.648438 611.578125 193.53125 611.578125 193.53125 C 609.496094 195.613281 606.265625 195.976562 603.765625 194.445312 C 565.964844 171.027344 521.414062 157.503906 473.722656 157.503906 C 462.804688 157.503906 452.054688 158.214844 441.507812 159.582031 L 445.757812 230.636719 C 454.757812 249.691406 459.394531 272.761719 459.394531 300.175781 C 459.394531 340.222656 449.5 371.742188 430.539062 395.195312 C 414.203125 415.4375 391.023438 429.765625 361.234375 438.253906 C 369.960938 449.914062 374.757812 464.152344 374.757812 478.898438 L 374.757812 631.792969 C 405.074219 645.046875 438.550781 652.402344 473.722656 652.402344 C 595.132812 652.402344 696.246094 564.773438 717.183594 449.367188 L 473.722656 449.367188 C 470.234375 449.367188 467.386719 446.539062 467.386719 443.035156 L 467.386719 366.867188 C 467.386719 363.363281 470.234375 360.535156 473.722656 360.535156 L 801.359375 360.535156 C 804.574219 360.535156 807.292969 362.945312 807.65625 366.140625 C 809.117188 378.878906 809.867188 391.820312 809.867188 404.941406 C 809.867188 590.472656 659.25 741.105469 473.722656 741.105469 C 420.40625 741.105469 369.976562 728.675781 325.1875 706.535156 C 324.382812 709.128906 321.976562 711.007812 319.128906 711.007812 L 298.101562 711.007812 C 294.597656 711.007812 291.769531 708.179688 291.769531 704.691406 L 291.769531 687.589844 C 286.128906 683.941406 280.597656 680.144531 275.195312 676.183594 L 275.195312 704.691406 C 275.195312 708.179688 272.367188 711.007812 268.878906 711.007812 L 247.835938 711.007812 C 244.351562 711.007812 241.503906 708.179688 241.503906 704.691406 L 241.503906 647.910156 C 235.789062 642.453125 230.257812 636.777344 224.929688 630.917969 L 224.929688 704.691406 C 224.929688 708.179688 222.101562 711.007812 218.613281 711.007812 L 198.539062 711.007812 C 195.035156 711.007812 192.203125 708.179688 192.203125 704.691406 Z M 172.820312 543.765625 C 161.269531 547.871094 149.402344 550.152344 138.816406 548.621094 C 130.640625 547.433594 123.707031 543.457031 117.097656 537.890625 C 111.3125 533.035156 105.746094 526.9375 99.503906 520.859375 C 90.980469 512.554688 81.125 504.25 66.996094 500.070312 C 56.996094 497.132812 44.929688 496.273438 29.816406 498.757812 C 36.535156 501.3125 44.070312 504.542969 51.261719 508.46875 C 65.902344 516.441406 78.859375 527.414062 82.675781 540.589844 C 91.984375 572.714844 122.574219 584.46875 144.585938 585.125 C 161.578125 585.636719 179.902344 580.835938 195.308594 571.710938 C 196.292969 571.125 197.386719 570.832031 198.539062 570.832031 C 200.765625 570.832031 202.828125 572 203.976562 573.9375 C 204.5625 574.902344 204.851562 576.015625 204.851562 577.148438 C 204.851562 577.148438 204.851562 698.359375 204.851562 698.359375 L 212.28125 698.359375 L 212.28125 591.441406 C 212.28125 579.886719 221.664062 570.503906 233.214844 570.503906 C 244.789062 570.503906 254.152344 579.886719 254.152344 591.441406 L 254.152344 698.359375 L 262.546875 698.359375 L 262.546875 542.359375 C 262.546875 530.808594 271.929688 521.425781 283.480469 521.425781 C 295.035156 521.425781 304.417969 530.808594 304.417969 542.359375 L 304.417969 698.359375 L 312.8125 698.359375 L 312.8125 696.386719 C 312.8125 696.351562 312.8125 696.296875 312.8125 696.261719 L 312.8125 584.429688 C 312.8125 572.878906 322.195312 563.496094 333.746094 563.496094 C 345.300781 563.496094 354.683594 572.878906 354.683594 584.429688 C 354.683594 584.429688 354.683594 625.625 354.683594 625.664062 L 354.683594 698.359375 L 362.109375 698.359375 L 362.109375 635.992188 C 362.109375 635.917969 362.109375 635.847656 362.109375 635.792969 L 362.109375 478.898438 C 362.109375 465.0625 356.925781 451.777344 347.617188 441.628906 C 329.222656 445.554688 308.597656 447.503906 285.816406 447.503906 C 261.234375 447.503906 239.386719 445.222656 220.257812 440.660156 C 210.382812 450.917969 204.851562 464.625 204.851562 478.898438 C 204.851562 478.898438 204.851562 524.4375 204.851562 524.4375 C 204.851562 526.664062 203.683594 528.726562 201.769531 529.875 C 201.75 529.875 201.75 529.875 201.75 529.875 C 193.644531 534.695312 184.355469 539.457031 174.792969 543.035156 C 174.609375 543.144531 174.425781 543.253906 174.226562 543.347656 C 173.75 543.546875 173.296875 543.675781 172.820312 543.765625 Z M 150.226562 402.460938 C 150.226562 403.28125 150.226562 404.121094 150.226562 404.941406 C 150.226562 449.074219 159.078125 491.128906 175.085938 529.476562 C 181.070312 526.902344 186.875 523.871094 192.203125 520.804688 L 192.203125 478.898438 C 192.203125 463.585938 197.371094 448.820312 206.75 436.917969 C 188.042969 430.953125 172.292969 422.445312 159.496094 411.421875 C 156.210938 408.609375 153.128906 405.617188 150.226562 402.460938 Z M 141.539062 235.128906 C 133.488281 252.832031 129.5625 274.421875 129.5625 300.175781 C 129.5625 345.898438 141.992188 379.644531 167.746094 401.839844 C 181.34375 413.558594 198.539062 422.027344 219.328125 427.445312 C 219.726562 427.519531 220.113281 427.609375 220.496094 427.738281 C 239.347656 432.539062 261.125 434.855469 285.816406 434.855469 C 308.777344 434.855469 329.421875 432.847656 347.65625 428.742188 C 348.074219 428.597656 348.511719 428.488281 348.953125 428.433594 C 380.179688 421.167969 404.238281 407.625 420.699219 387.257812 C 438.039062 365.773438 446.746094 336.828125 446.746094 300.175781 C 446.746094 274.441406 442.472656 252.867188 433.894531 235.183594 C 433.839844 235.074219 433.804688 234.964844 433.75 234.851562 C 430.171875 227.515625 425.847656 220.855469 420.773438 214.832031 C 407.632812 199.207031 389.652344 188.039062 367.039062 180.773438 C 366.675781 180.699219 366.308594 180.609375 365.960938 180.480469 C 365.617188 180.390625 365.285156 180.261719 364.957031 180.117188 C 342.820312 173.328125 316.371094 170.167969 285.816406 170.167969 C 272.292969 170.167969 259.644531 170.789062 247.871094 172.066406 C 247.507812 172.140625 247.125 172.175781 246.742188 172.175781 C 231.71875 173.875 218.140625 176.667969 206.003906 180.628906 C 205.472656 180.882812 204.945312 181.066406 204.378906 181.175781 C 183.003906 188.421875 166.214844 199.425781 154.003906 214.703125 C 149.203125 220.707031 145.132812 227.332031 141.757812 234.632812 C 141.703125 234.796875 141.628906 234.964844 141.539062 235.128906 Z M 192.1875 172.324219 L 145.296875 121.382812 L 142.886719 208.351562 C 143.289062 207.839844 143.710938 207.328125 144.109375 206.800781 C 156.101562 191.816406 172.089844 180.390625 192.1875 172.324219 Z M 652.113281 135.105469 C 600.953125 101.195312 539.628906 81.445312 473.722656 81.445312 C 394.105469 81.445312 321.171875 110.285156 264.792969 158.050781 C 271.5625 157.683594 278.570312 157.503906 285.816406 157.503906 C 316.574219 157.503906 343.382812 160.734375 366.125 167.375 L 427.269531 100.941406 C 428.984375 99.058594 431.652344 98.402344 434.042969 99.261719 C 436.433594 100.117188 438.09375 102.308594 438.238281 104.84375 L 440.757812 146.914062 C 451.546875 145.546875 462.550781 144.855469 473.722656 144.855469 C 522.070312 144.855469 567.335938 158.066406 606.136719 181.082031 Z M 431.742188 208.242188 L 428.53125 154.582031 C 428.53125 154.527344 428.53125 154.492188 428.53125 154.4375 L 426.503906 120.449219 L 379.269531 171.773438 C 400.496094 179.84375 417.597656 191.394531 430.464844 206.691406 C 430.882812 207.203125 431.320312 207.714844 431.742188 208.242188 Z M 730.90625 443.984375 C 712.054688 569.046875 604.003906 665.050781 473.722656 665.050781 C 438.695312 665.050781 405.277344 658.113281 374.757812 645.539062 L 374.757812 704.691406 C 374.757812 708.085938 372.09375 710.863281 368.738281 711.007812 C 401.664062 722.304688 436.980469 728.457031 473.722656 728.457031 C 652.261719 728.457031 797.21875 583.5 797.21875 404.941406 C 797.21875 394.230469 796.707031 383.640625 795.683594 373.183594 L 480.054688 373.183594 L 480.054688 436.71875 L 724.648438 436.71875 C 724.976562 436.71875 725.285156 436.738281 725.597656 436.792969 C 728.679688 437.25 730.980469 439.914062 730.980469 443.035156 C 730.980469 443.363281 730.960938 443.671875 730.90625 443.984375 Z M 325.460938 692.5 C 330.898438 695.3125 336.414062 697.976562 342.035156 700.476562 L 342.035156 629.257812 C 336.359375 625.917969 330.828125 622.375 325.460938 618.636719 Z M 291.769531 672.40625 L 291.769531 590.746094 C 285.964844 585.070312 280.453125 579.136719 275.195312 572.933594 L 275.195312 660.324219 C 280.578125 664.519531 286.109375 668.554688 291.769531 672.40625 Z M 291.769531 572.585938 L 291.769531 542.359375 C 291.769531 537.78125 288.0625 534.074219 283.480469 534.074219 C 278.917969 534.074219 275.195312 537.78125 275.195312 542.359375 L 275.195312 552.617188 C 280.378906 559.574219 285.910156 566.234375 291.769531 572.585938 Z M 241.503906 630.097656 L 241.503906 591.441406 C 241.503906 586.878906 237.796875 583.152344 233.214844 583.152344 C 228.652344 583.152344 224.929688 586.878906 224.929688 591.441406 L 224.929688 611.644531 C 230.222656 618.015625 235.753906 624.164062 241.503906 630.097656 Z M 342.035156 614.4375 L 342.035156 584.429688 C 342.035156 579.851562 338.3125 576.144531 333.746094 576.144531 C 329.167969 576.144531 325.460938 579.851562 325.460938 584.429688 L 325.460938 603.03125 C 330.808594 607.046875 336.339844 610.859375 342.035156 614.4375 Z M 342.035156 614.4375 " fill-opacity="1" fill-rule="evenodd"/></g></svg>