<svg xmlns="http://www.w3.org/2000/svg" xmlns:xlink="http://www.w3.org/1999/xlink" width="1080" zoomAndPan="magnify" viewBox="0 0 810 809.999993" height="1080" preserveAspectRatio="xMidYMid meet" version="1.0"><metadata><ContainsAiGeneratedContent>Yes</ContainsAiGeneratedContent></metadata><rect x="-81" width="972" fill="#ffffff" y="-80.999999" height="971.999992" fill-opacity="1"/><rect x="-81" width="972" fill="#ffffff" y="-80.999999" height="971.999992" fill-opacity="1"/><path fill="#ffffff" d="M 683.0625 810 L 126.9375 810 C 124.859375 809.996094 122.785156 809.941406 120.710938 809.835938 C 118.636719 809.730469 116.566406 809.578125 114.5 809.371094 C 112.433594 809.164062 110.375 808.90625 108.320312 808.601562 C 106.265625 808.292969 104.222656 807.933594 102.1875 807.527344 C 100.148438 807.121094 98.125 806.664062 96.109375 806.15625 C 94.097656 805.648438 92.097656 805.09375 90.109375 804.488281 C 88.125 803.882812 86.152344 803.230469 84.199219 802.53125 C 82.246094 801.828125 80.308594 801.078125 78.390625 800.285156 C 76.472656 799.488281 74.574219 798.644531 72.699219 797.753906 C 70.824219 796.867188 68.96875 795.933594 67.136719 794.953125 C 65.308594 793.972656 63.503906 792.949219 61.722656 791.878906 C 59.941406 790.8125 58.1875 789.699219 56.460938 788.546875 C 54.734375 787.390625 53.039062 786.195312 51.371094 784.957031 C 49.703125 783.71875 48.066406 782.441406 46.460938 781.125 C 44.859375 779.808594 43.285156 778.453125 41.746094 777.054688 C 40.210938 775.660156 38.707031 774.230469 37.238281 772.761719 C 35.769531 771.292969 34.339844 769.789062 32.941406 768.25 C 31.546875 766.714844 30.191406 765.140625 28.875 763.535156 C 27.558594 761.933594 26.28125 760.296875 25.042969 758.628906 C 23.804688 756.960938 22.609375 755.265625 21.453125 753.539062 C 20.300781 751.8125 19.1875 750.058594 18.121094 748.277344 C 17.050781 746.496094 16.027344 744.691406 15.046875 742.859375 C 14.066406 741.03125 13.132812 739.175781 12.246094 737.300781 C 11.355469 735.425781 10.511719 733.527344 9.714844 731.609375 C 8.921875 729.691406 8.171875 727.753906 7.46875 725.800781 C 6.769531 723.847656 6.117188 721.875 5.511719 719.890625 C 4.90625 717.902344 4.351562 715.902344 3.84375 713.890625 C 3.335938 711.875 2.878906 709.851562 2.472656 707.8125 C 2.066406 705.777344 1.707031 703.734375 1.398438 701.679688 C 1.09375 699.625 0.835938 697.566406 0.628906 695.5 C 0.421875 693.433594 0.265625 691.363281 0.164062 689.289062 C 0.0585938 687.214844 0.00390625 685.140625 0 683.0625 L 0 126.9375 C 0.00390625 124.859375 0.0585938 122.785156 0.164062 120.710938 C 0.265625 118.636719 0.421875 116.566406 0.628906 114.5 C 0.835938 112.433594 1.09375 110.375 1.398438 108.320312 C 1.707031 106.265625 2.066406 104.222656 2.472656 102.1875 C 2.878906 100.148438 3.335938 98.125 3.84375 96.109375 C 4.351562 94.097656 4.90625 92.097656 5.511719 90.109375 C 6.117188 88.125 6.769531 86.152344 7.46875 84.199219 C 8.171875 82.246094 8.921875 80.308594 9.714844 78.390625 C 10.511719 76.472656 11.355469 74.574219 12.246094 72.699219 C 13.132812 70.824219 14.066406 68.96875 15.046875 67.136719 C 16.027344 65.308594 17.050781 63.503906 18.121094 61.722656 C 19.1875 59.941406 20.300781 58.1875 21.453125 56.460938 C 22.609375 54.734375 23.804688 53.039062 25.042969 51.371094 C 26.28125 49.703125 27.558594 48.066406 28.875 46.460938 C 30.191406 44.859375 31.546875 43.285156 32.945312 41.746094 C 34.339844 40.210938 35.769531 38.707031 37.238281 37.238281 C 38.707031 35.769531 40.210938 34.339844 41.746094 32.945312 C 43.285156 31.546875 44.859375 30.191406 46.460938 28.875 C 48.066406 27.558594 49.703125 26.28125 51.371094 25.042969 C 53.039062 23.804688 54.734375 22.609375 56.460938 21.453125 C 58.1875 20.300781 59.941406 19.1875 61.722656 18.121094 C 63.503906 17.050781 65.308594 16.027344 67.136719 15.046875 C 68.96875 14.066406 70.824219 13.132812 72.699219 12.246094 C 74.574219 11.355469 76.472656 10.511719 78.390625 9.714844 C 80.308594 8.921875 82.246094 8.171875 84.199219 7.46875 C 86.152344 6.769531 88.125 6.117188 90.109375 5.511719 C 92.097656 4.90625 94.097656 4.351562 96.109375 3.84375 C 98.125 3.335938 100.148438 2.878906 102.1875 2.472656 C 104.222656 2.066406 106.265625 1.707031 108.320312 1.398438 C 110.375 1.09375 112.433594 0.835938 114.5 0.628906 C 116.566406 0.421875 118.636719 0.265625 120.710938 0.164062 C 122.785156 0.0585938 124.859375 0.00390625 126.9375 0 L 683.0625 0 C 685.140625 0.00390625 687.214844 0.0585938 689.289062 0.164062 C 691.363281 0.265625 693.433594 0.421875 695.5 0.628906 C 697.566406 0.835938 699.625 1.09375 701.679688 1.398438 C 703.734375 1.707031 705.777344 2.066406 707.8125 2.472656 C 709.851562 2.878906 711.875 3.335938 713.890625 3.84375 C 715.902344 4.351562 717.902344 4.90625 719.890625 5.511719 C 721.875 6.117188 723.847656 6.769531 725.800781 7.46875 C 727.753906 8.171875 729.691406 8.921875 731.609375 9.714844 C 733.527344 10.511719 735.425781 11.355469 737.300781 12.246094 C 739.175781 13.132812 741.03125 14.066406 742.859375 15.046875 C 744.691406 16.027344 746.496094 17.050781 748.277344 18.121094 C 750.058594 19.1875 751.8125 20.300781 753.539062 21.453125 C 755.265625 22.609375 756.960938 23.804688 758.628906 25.042969 C 760.296875 26.28125 761.933594 27.558594 763.535156 28.875 C 765.140625 30.191406 766.714844 31.546875 768.253906 32.945312 C 769.789062 34.339844 771.292969 35.769531 772.761719 37.238281 C 774.230469 38.707031 775.660156 40.210938 777.054688 41.746094 C 778.453125 43.285156 779.808594 44.859375 781.125 46.460938 C 782.441406 48.066406 783.71875 49.703125 784.957031 51.371094 C 786.195312 53.039062 787.390625 54.734375 788.546875 56.460938 C 789.699219 58.1875 790.8125 59.941406 791.878906 61.722656 C 792.949219 63.503906 793.972656 65.308594 794.953125 67.136719 C 795.933594 68.96875 796.867188 70.824219 797.753906 72.699219 C 798.644531 74.574219 799.488281 76.472656 800.285156 78.390625 C 801.078125 80.308594 801.828125 82.246094 802.53125 84.199219 C 803.230469 86.152344 803.882812 88.125 804.488281 90.109375 C 805.09375 92.097656 805.648438 94.097656 806.15625 96.109375 C 806.664062 98.125 807.121094 100.148438 807.527344 102.1875 C 807.933594 104.222656 808.292969 106.265625 808.601562 108.320312 C 808.90625 110.375 809.164062 112.433594 809.371094 114.5 C 809.578125 116.566406 809.734375 118.636719 809.835938 120.710938 C 809.941406 122.785156 809.996094 124.859375 810 126.9375 L 810 683.0625 C 809.996094 685.140625 809.941406 687.214844 809.835938 689.289062 C 809.730469 691.363281 809.578125 693.433594 809.371094 695.5 C 809.164062 697.566406 808.90625 699.625 808.601562 701.679688 C 808.292969 703.734375 807.933594 705.777344 807.527344 707.8125 C 807.121094 709.851562 806.664062 711.875 806.15625 713.890625 C 805.648438 715.902344 805.09375 717.902344 804.488281 719.890625 C 803.882812 721.875 803.230469 723.847656 802.53125 725.800781 C 801.828125 727.753906 801.078125 729.691406 800.285156 731.609375 C 799.488281 733.527344 798.644531 735.425781 797.753906 737.300781 C 796.867188 739.175781 795.933594 741.03125 794.953125 742.859375 C 793.972656 744.691406 792.949219 746.496094 791.878906 748.277344 C 790.8125 750.058594 789.699219 751.8125 788.546875 753.539062 C 787.390625 755.265625 786.195312 756.960938 784.957031 758.628906 C 783.71875 760.296875 782.441406 761.933594 781.125 763.535156 C 779.808594 765.140625 778.453125 766.714844 777.054688 768.253906 C 775.660156 769.789062 774.230469 771.292969 772.761719 772.761719 C 771.292969 774.230469 769.789062 775.660156 768.253906 777.054688 C 766.714844 778.453125 765.140625 779.808594 763.535156 781.125 C 761.933594 782.441406 760.296875 783.71875 758.628906 784.957031 C 756.960938 786.195312 755.265625 787.390625 753.539062 788.546875 C 751.8125 789.699219 750.058594 790.8125 748.277344 791.878906 C 746.496094 792.949219 744.691406 793.972656 742.859375 794.953125 C 741.03125 795.933594 739.175781 796.867188 737.300781 797.753906 C 735.425781 798.644531 733.527344 799.488281 731.609375 800.285156 C 729.691406 801.078125 727.753906 801.828125 725.800781 802.53125 C 723.847656 803.230469 721.875 803.882812 719.890625 804.488281 C 717.902344 805.09375 715.902344 805.648438 713.890625 806.15625 C 711.875 806.664062 709.851562 807.121094 707.8125 807.527344 C 705.777344 807.933594 703.734375 808.292969 701.679688 808.601562 C 699.625 808.90625 697.566406 809.164062 695.5 809.371094 C 693.433594 809.578125 691.363281 809.734375 689.289062 809.835938 C 687.214844 809.941406 685.140625 809.996094 683.0625 810 Z M 126.9375 17.6875 C 125.148438 17.691406 123.363281 17.738281 121.578125 17.828125 C 119.792969 17.917969 118.011719 18.050781 116.230469 18.226562 C 114.453125 18.402344 112.679688 18.625 110.914062 18.886719 C 109.144531 19.152344 107.382812 19.460938 105.632812 19.808594 C 103.878906 20.160156 102.136719 20.550781 100.402344 20.988281 C 98.667969 21.425781 96.949219 21.902344 95.238281 22.421875 C 93.527344 22.941406 91.832031 23.503906 90.148438 24.105469 C 88.464844 24.710938 86.800781 25.355469 85.148438 26.039062 C 83.496094 26.722656 81.863281 27.449219 80.25 28.214844 C 78.632812 28.980469 77.039062 29.785156 75.460938 30.625 C 73.886719 31.46875 72.332031 32.351562 70.800781 33.269531 C 69.265625 34.191406 67.757812 35.144531 66.273438 36.140625 C 64.785156 37.132812 63.324219 38.164062 61.890625 39.226562 C 60.453125 40.292969 59.046875 41.390625 57.664062 42.527344 C 56.285156 43.660156 54.929688 44.828125 53.605469 46.027344 C 52.28125 47.226562 50.988281 48.460938 49.722656 49.722656 C 48.460938 50.988281 47.226562 52.28125 46.027344 53.605469 C 44.828125 54.929688 43.660156 56.285156 42.527344 57.664062 C 41.390625 59.046875 40.292969 60.453125 39.226562 61.890625 C 38.164062 63.324219 37.132812 64.785156 36.140625 66.273438 C 35.144531 67.757812 34.191406 69.265625 33.269531 70.800781 C 32.351562 72.332031 31.46875 73.886719 30.625 75.460938 C 29.785156 77.039062 28.980469 78.632812 28.214844 80.25 C 27.449219 81.863281 26.722656 83.496094 26.039062 85.148438 C 25.355469 86.800781 24.710938 88.464844 24.105469 90.148438 C 23.503906 91.832031 22.941406 93.527344 22.421875 95.238281 C 21.902344 96.949219 21.425781 98.667969 20.988281 100.402344 C 20.550781 102.136719 20.160156 103.878906 19.808594 105.632812 C 19.460938 107.382812 19.152344 109.144531 18.886719 110.914062 C 18.625 112.679688 18.402344 114.453125 18.226562 116.230469 C 18.050781 118.011719 17.917969 119.792969 17.828125 121.578125 C 17.738281 123.363281 17.691406 125.148438 17.6875 126.9375 L 17.6875 683.0625 C 17.691406 684.851562 17.738281 686.636719 17.828125 688.421875 C 17.917969 690.207031 18.050781 691.988281 18.226562 693.769531 C 18.402344 695.546875 18.625 697.320312 18.886719 699.085938 C 19.152344 700.855469 19.460938 702.617188 19.808594 704.367188 C 20.160156 706.121094 20.550781 707.863281 20.988281 709.597656 C 21.425781 711.332031 21.902344 713.050781 22.421875 714.761719 C 22.941406 716.472656 23.503906 718.167969 24.105469 719.851562 C 24.710938 721.535156 25.355469 723.199219 26.039062 724.851562 C 26.722656 726.503906 27.449219 728.136719 28.214844 729.75 C 28.980469 731.367188 29.785156 732.960938 30.625 734.539062 C 31.46875 736.113281 32.351562 737.667969 33.269531 739.199219 C 34.191406 740.734375 35.144531 742.242188 36.140625 743.726562 C 37.132812 745.214844 38.164062 746.675781 39.226562 748.109375 C 40.292969 749.546875 41.390625 750.953125 42.527344 752.335938 C 43.660156 753.714844 44.828125 755.070312 46.027344 756.394531 C 47.226562 757.71875 48.460938 759.011719 49.722656 760.277344 C 50.988281 761.539062 52.28125 762.773438 53.605469 763.972656 C 54.929688 765.171875 56.285156 766.339844 57.664062 767.472656 C 59.046875 768.609375 60.453125 769.707031 61.890625 770.773438 C 63.324219 771.835938 64.785156 772.867188 66.273438 773.859375 C 67.757812 774.855469 69.265625 775.808594 70.800781 776.730469 C 72.332031 777.648438 73.886719 778.53125 75.460938 779.375 C 77.039062 780.214844 78.632812 781.019531 80.25 781.785156 C 81.863281 782.550781 83.496094 783.277344 85.148438 783.960938 C 86.800781 784.644531 88.464844 785.289062 90.148438 785.894531 C 91.832031 786.496094 93.527344 787.058594 95.238281 787.578125 C 96.949219 788.097656 98.667969 788.574219 100.402344 789.011719 C 102.136719 789.449219 103.878906 789.839844 105.632812 790.191406 C 107.382812 790.539062 109.144531 790.847656 110.914062 791.113281 C 112.679688 791.375 114.453125 791.597656 116.230469 791.773438 C 118.011719 791.949219 119.792969 792.082031 121.578125 792.171875 C 123.363281 792.261719 125.148438 792.308594 126.9375 792.3125 L 683.0625 792.3125 C 684.851562 792.308594 686.636719 792.261719 688.421875 792.171875 C 690.207031 792.082031 691.988281 791.949219 693.769531 791.773438 C 695.546875 791.597656 697.320312 791.375 699.085938 791.113281 C 700.855469 790.847656 702.617188 790.539062 704.367188 790.191406 C 706.121094 789.839844 707.863281 789.449219 709.597656 789.011719 C 711.332031 788.574219 713.050781 788.097656 714.761719 787.578125 C 716.472656 787.058594 718.167969 786.496094 719.851562 785.894531 C 721.535156 785.289062 723.199219 784.644531 724.851562 783.960938 C 726.503906 783.277344 728.136719 782.550781 729.75 781.785156 C 731.367188 781.019531 732.960938 780.214844 734.539062 779.375 C 736.113281 778.53125 737.667969 777.648438 739.199219 776.730469 C 740.734375 775.808594 742.242188 774.855469 743.726562 773.859375 C 745.214844 772.867188 746.675781 771.835938 748.109375 770.773438 C 749.546875 769.707031 750.953125 768.609375 752.335938 767.472656 C 753.714844 766.339844 755.070312 765.171875 756.394531 763.972656 C 757.71875 762.773438 759.011719 761.539062 760.277344 760.277344 C 761.539062 759.011719 762.773438 757.71875 763.972656 756.394531 C 765.171875 755.070312 766.339844 753.714844 767.472656 752.335938 C 768.609375 750.953125 769.707031 749.546875 770.773438 748.109375 C 771.835938 746.675781 772.867188 745.214844 773.859375 743.726562 C 774.855469 742.242188 775.808594 740.734375 776.730469 739.199219 C 777.648438 737.667969 778.53125 736.113281 779.375 734.539062 C 780.214844 732.960938 781.019531 731.367188 781.785156 729.75 C 782.550781 728.136719 783.277344 726.503906 783.960938 724.851562 C 784.644531 723.199219 785.289062 721.535156 785.894531 719.851562 C 786.496094 718.167969 787.058594 716.472656 787.578125 714.761719 C 788.097656 713.050781 788.574219 711.332031 789.011719 709.597656 C 789.449219 707.863281 789.839844 706.121094 790.191406 704.367188 C 790.542969 702.617188 790.847656 700.855469 791.113281 699.085938 C 791.375 697.320312 791.597656 695.546875 791.773438 693.769531 C 791.949219 691.988281 792.082031 690.207031 792.171875 688.421875 C 792.261719 686.636719 792.308594 684.851562 792.3125 683.0625 L 792.3125 126.9375 C 792.308594 125.148438 792.261719 123.363281 792.171875 121.578125 C 792.082031 119.792969 791.949219 118.011719 791.773438 116.230469 C 791.597656 114.453125 791.375 112.679688 791.113281 110.914062 C 790.847656 109.144531 790.539062 107.382812 790.191406 105.632812 C 789.839844 103.878906 789.449219 102.136719 789.011719 100.402344 C 788.574219 98.667969 788.097656 96.949219 787.578125 95.238281 C 787.058594 93.527344 786.496094 91.832031 785.894531 90.148438 C 785.289062 88.464844 784.644531 86.800781 783.960938 85.148438 C 783.277344 83.496094 782.550781 81.863281 781.785156 80.25 C 781.019531 78.632812 780.214844 77.039062 779.375 75.460938 C 778.53125 73.886719 777.648438 72.332031 776.730469 70.800781 C 775.808594 69.265625 774.855469 67.757812 773.859375 66.273438 C 772.867188 64.785156 771.835938 63.324219 770.773438 61.890625 C 769.707031 60.453125 768.609375 59.046875 767.472656 57.664062 C 766.339844 56.285156 765.171875 54.929688 763.972656 53.605469 C 762.773438 52.28125 761.539062 50.988281 760.277344 49.722656 C 759.011719 48.460938 757.71875 47.226562 756.394531 46.027344 C 755.070312 44.828125 753.714844 43.660156 752.335938 42.527344 C 750.953125 41.390625 749.546875 40.292969 748.109375 39.226562 C 746.675781 38.164062 745.214844 37.132812 743.726562 36.140625 C 742.242188 35.144531 740.734375 34.191406 739.199219 33.269531 C 737.667969 32.351562 736.113281 31.46875 734.539062 30.625 C 732.960938 29.785156 731.367188 28.980469 729.75 28.214844 C 728.136719 27.449219 726.503906 26.722656 724.851562 26.039062 C 723.199219 25.355469 721.535156 24.710938 719.851562 24.105469 C 718.167969 23.503906 716.472656 22.941406 714.761719 22.421875 C 713.050781 21.902344 711.332031 21.425781 709.597656 20.988281 C 707.863281 20.550781 706.121094 20.160156 704.367188 19.808594 C 702.617188 19.460938 700.855469 19.152344 699.085938 18.886719 C 697.320312 18.625 695.546875 18.402344 693.769531 18.226562 C 691.988281 18.050781 690.207031 17.917969 688.421875 17.828125 C 686.636719 17.738281 684.851562 17.691406 683.0625 17.6875 Z M 126.9375 17.6875 " fill-opacity="1" fill-rule="nonzero"/><path fill="#ffffff" d="M 683.0625 747.867188 L 126.9375 747.867188 C 125.875 747.867188 124.816406 747.839844 123.757812 747.789062 C 122.699219 747.734375 121.640625 747.65625 120.585938 747.550781 C 119.53125 747.445312 118.476562 747.316406 117.429688 747.160156 C 116.382812 747.003906 115.335938 746.820312 114.296875 746.613281 C 113.257812 746.40625 112.222656 746.171875 111.195312 745.914062 C 110.167969 745.65625 109.144531 745.375 108.128906 745.066406 C 107.117188 744.757812 106.109375 744.421875 105.109375 744.066406 C 104.113281 743.707031 103.125 743.328125 102.144531 742.921875 C 101.164062 742.515625 100.195312 742.085938 99.238281 741.628906 C 98.28125 741.175781 97.332031 740.699219 96.398438 740.199219 C 95.464844 739.699219 94.542969 739.175781 93.632812 738.632812 C 92.722656 738.085938 91.828125 737.519531 90.945312 736.929688 C 90.0625 736.339844 89.199219 735.730469 88.347656 735.097656 C 87.496094 734.464844 86.660156 733.8125 85.839844 733.140625 C 85.019531 732.46875 84.21875 731.777344 83.433594 731.0625 C 82.644531 730.351562 81.878906 729.621094 81.128906 728.871094 C 80.378906 728.121094 79.648438 727.355469 78.9375 726.566406 C 78.222656 725.78125 77.53125 724.980469 76.859375 724.160156 C 76.1875 723.339844 75.535156 722.503906 74.902344 721.652344 C 74.269531 720.800781 73.660156 719.9375 73.070312 719.054688 C 72.480469 718.171875 71.914062 717.277344 71.367188 716.367188 C 70.824219 715.457031 70.300781 714.535156 69.800781 713.601562 C 69.300781 712.667969 68.824219 711.71875 68.371094 710.761719 C 67.914062 709.804688 67.484375 708.835938 67.078125 707.855469 C 66.671875 706.875 66.292969 705.886719 65.933594 704.886719 C 65.574219 703.890625 65.242188 702.882812 64.933594 701.871094 C 64.625 700.855469 64.34375 699.832031 64.085938 698.804688 C 63.828125 697.777344 63.59375 696.742188 63.386719 695.703125 C 63.179688 694.664062 62.996094 693.617188 62.839844 692.570312 C 62.683594 691.519531 62.554688 690.46875 62.449219 689.414062 C 62.34375 688.359375 62.265625 687.300781 62.210938 686.242188 C 62.160156 685.183594 62.132812 684.125 62.132812 683.0625 L 62.132812 126.9375 C 62.132812 125.875 62.160156 124.816406 62.210938 123.757812 C 62.265625 122.699219 62.34375 121.640625 62.449219 120.585938 C 62.554688 119.53125 62.683594 118.476562 62.839844 117.429688 C 62.996094 116.382812 63.179688 115.335938 63.386719 114.296875 C 63.59375 113.257812 63.828125 112.222656 64.085938 111.195312 C 64.34375 110.167969 64.625 109.144531 64.933594 108.128906 C 65.242188 107.117188 65.574219 106.109375 65.933594 105.109375 C 66.292969 104.113281 66.671875 103.125 67.078125 102.144531 C 67.484375 101.164062 67.914062 100.195312 68.371094 99.238281 C 68.824219 98.28125 69.300781 97.332031 69.800781 96.398438 C 70.300781 95.464844 70.824219 94.542969 71.367188 93.632812 C 71.914062 92.722656 72.480469 91.828125 73.070312 90.945312 C 73.660156 90.0625 74.269531 89.199219 74.902344 88.347656 C 75.535156 87.496094 76.1875 86.660156 76.859375 85.839844 C 77.53125 85.019531 78.222656 84.21875 78.9375 83.433594 C 79.648438 82.644531 80.378906 81.878906 81.128906 81.128906 C 81.878906 80.378906 82.644531 79.648438 83.433594 78.9375 C 84.21875 78.222656 85.019531 77.53125 85.839844 76.859375 C 86.660156 76.1875 87.496094 75.535156 88.347656 74.902344 C 89.199219 74.269531 90.0625 73.660156 90.945312 73.070312 C 91.828125 72.480469 92.722656 71.914062 93.632812 71.367188 C 94.542969 70.824219 95.464844 70.300781 96.398438 69.800781 C 97.332031 69.300781 98.28125 68.824219 99.238281 68.371094 C 100.195312 67.914062 101.164062 67.484375 102.144531 67.078125 C 103.125 66.671875 104.113281 66.292969 105.109375 65.933594 C 106.109375 65.574219 107.117188 65.242188 108.128906 64.933594 C 109.144531 64.625 110.167969 64.34375 111.195312 64.085938 C 112.222656 63.828125 113.257812 63.59375 114.296875 63.386719 C 115.335938 63.179688 116.382812 62.996094 117.429688 62.839844 C 118.476562 62.683594 119.53125 62.554688 120.585938 62.449219 C 121.640625 62.34375 122.699219 62.265625 123.757812 62.210938 C 124.816406 62.160156 125.875 62.132812 126.9375 62.132812 L 683.0625 62.132812 C 684.125 62.132812 685.183594 62.160156 686.242188 62.210938 C 687.300781 62.265625 688.359375 62.34375 689.414062 62.449219 C 690.46875 62.554688 691.519531 62.683594 692.570312 62.839844 C 693.617188 62.996094 694.664062 63.179688 695.703125 63.386719 C 696.742188 63.59375 697.777344 63.828125 698.804688 64.085938 C 699.832031 64.34375 700.855469 64.625 701.871094 64.933594 C 702.882812 65.242188 703.890625 65.574219 704.886719 65.933594 C 705.886719 66.292969 706.875 66.671875 707.855469 67.078125 C 708.835938 67.484375 709.804688 67.914062 710.761719 68.371094 C 711.71875 68.824219 712.667969 69.300781 713.601562 69.800781 C 714.535156 70.300781 715.457031 70.824219 716.367188 71.367188 C 717.277344 71.914062 718.171875 72.480469 719.054688 73.070312 C 719.9375 73.660156 720.800781 74.269531 721.652344 74.902344 C 722.503906 75.535156 723.339844 76.1875 724.160156 76.859375 C 724.980469 77.53125 725.78125 78.222656 726.566406 78.9375 C 727.355469 79.648438 728.121094 80.378906 728.871094 81.128906 C 729.621094 81.878906 730.351562 82.644531 731.0625 83.433594 C 731.777344 84.21875 732.46875 85.019531 733.140625 85.839844 C 733.8125 86.660156 734.464844 87.496094 735.097656 88.347656 C 735.730469 89.199219 736.339844 90.0625 736.929688 90.945312 C 737.519531 91.828125 738.085938 92.722656 738.632812 93.632812 C 739.175781 94.542969 739.699219 95.464844 740.199219 96.398438 C 740.699219 97.332031 741.175781 98.28125 741.628906 99.238281 C 742.085938 100.195312 742.515625 101.164062 742.921875 102.144531 C 743.328125 103.125 743.707031 104.113281 744.066406 105.109375 C 744.425781 106.109375 744.757812 107.117188 745.066406 108.128906 C 745.375 109.144531 745.65625 110.167969 745.914062 111.195312 C 746.171875 112.222656 746.40625 113.257812 746.613281 114.296875 C 746.820312 115.335938 747.003906 116.382812 747.160156 117.429688 C 747.316406 118.476562 747.445312 119.53125 747.550781 120.585938 C 747.65625 121.640625 747.734375 122.699219 747.789062 123.757812 C 747.839844 124.816406 747.867188 125.875 747.867188 126.9375 L 747.867188 683.0625 C 747.867188 684.125 747.839844 685.183594 747.789062 686.242188 C 747.734375 687.300781 747.65625 688.359375 747.550781 689.414062 C 747.445312 690.46875 747.316406 691.523438 747.160156 692.570312 C 747.003906 693.617188 746.820312 694.664062 746.613281 695.703125 C 746.40625 696.742188 746.171875 697.777344 745.914062 698.804688 C 745.65625 699.832031 745.375 700.855469 745.066406 701.871094 C 744.757812 702.882812 744.421875 703.890625 744.066406 704.890625 C 743.707031 705.886719 743.328125 706.875 742.921875 707.855469 C 742.515625 708.835938 742.085938 709.804688 741.628906 710.761719 C 741.175781 711.71875 740.699219 712.667969 740.199219 713.601562 C 739.699219 714.535156 739.175781 715.457031 738.632812 716.367188 C 738.085938 717.277344 737.519531 718.171875 736.929688 719.054688 C 736.339844 719.9375 735.730469 720.800781 735.097656 721.652344 C 734.464844 722.503906 733.8125 723.339844 733.140625 724.160156 C 732.46875 724.980469 731.777344 725.78125 731.0625 726.566406 C 730.351562 727.355469 729.621094 728.121094 728.871094 728.871094 C 728.121094 729.621094 727.355469 730.351562 726.566406 731.0625 C 725.78125 731.777344 724.980469 732.46875 724.160156 733.140625 C 723.339844 733.8125 722.503906 734.464844 721.652344 735.097656 C 720.800781 735.730469 719.9375 736.339844 719.054688 736.929688 C 718.171875 737.519531 717.277344 738.085938 716.367188 738.632812 C 715.457031 739.175781 714.535156 739.699219 713.601562 740.199219 C 712.667969 740.699219 711.71875 741.175781 710.761719 741.628906 C 709.804688 742.085938 708.835938 742.515625 707.855469 742.921875 C 706.875 743.328125 705.886719 743.707031 704.886719 744.066406 C 703.890625 744.421875 702.882812 744.757812 701.871094 745.066406 C 700.855469 745.375 699.832031 745.65625 698.804688 745.914062 C 697.777344 746.171875 696.742188 746.40625 695.703125 746.613281 C 694.664062 746.820312 693.617188 747.003906 692.570312 747.160156 C 691.519531 747.316406 690.46875 747.445312 689.414062 747.550781 C 688.359375 747.65625 687.300781 747.734375 686.242188 747.789062 C 685.183594 747.839844 684.125 747.867188 683.0625 747.867188 Z M 126.9375 79.800781 C 125.394531 79.804688 123.851562 79.882812 122.316406 80.035156 C 120.78125 80.1875 119.257812 80.417969 117.746094 80.71875 C 116.234375 81.023438 114.738281 81.398438 113.261719 81.847656 C 111.785156 82.296875 110.335938 82.816406 108.910156 83.410156 C 107.484375 84 106.09375 84.660156 104.730469 85.390625 C 103.371094 86.117188 102.050781 86.910156 100.765625 87.769531 C 99.484375 88.625 98.246094 89.542969 97.054688 90.523438 C 95.863281 91.503906 94.71875 92.539062 93.628906 93.628906 C 92.539062 94.71875 91.503906 95.863281 90.523438 97.054688 C 89.542969 98.246094 88.625 99.484375 87.769531 100.765625 C 86.910156 102.050781 86.117188 103.371094 85.390625 104.730469 C 84.660156 106.09375 84 107.484375 83.410156 108.910156 C 82.816406 110.335938 82.296875 111.785156 81.847656 113.261719 C 81.398438 114.738281 81.023438 116.234375 80.71875 117.746094 C 80.417969 119.257812 80.1875 120.78125 80.035156 122.316406 C 79.882812 123.851562 79.804688 125.394531 79.800781 126.9375 L 79.800781 683.0625 C 79.804688 684.605469 79.882812 686.148438 80.035156 687.683594 C 80.1875 689.21875 80.417969 690.742188 80.71875 692.253906 C 81.023438 693.765625 81.398438 695.261719 81.847656 696.738281 C 82.296875 698.214844 82.816406 699.664062 83.410156 701.089844 C 84 702.515625 84.660156 703.90625 85.390625 705.269531 C 86.117188 706.628906 86.910156 707.949219 87.769531 709.234375 C 88.625 710.515625 89.542969 711.753906 90.523438 712.945312 C 91.503906 714.136719 92.539062 715.28125 93.628906 716.371094 C 94.71875 717.460938 95.863281 718.496094 97.054688 719.476562 C 98.246094 720.457031 99.484375 721.375 100.765625 722.230469 C 102.050781 723.089844 103.371094 723.882812 104.730469 724.609375 C 106.09375 725.339844 107.484375 726 108.910156 726.589844 C 110.335938 727.183594 111.785156 727.703125 113.261719 728.152344 C 114.738281 728.601562 116.234375 728.976562 117.746094 729.28125 C 119.257812 729.582031 120.78125 729.8125 122.316406 729.964844 C 123.851562 730.117188 125.394531 730.195312 126.9375 730.199219 L 683.0625 730.199219 C 684.605469 730.195312 686.148438 730.117188 687.683594 729.964844 C 689.21875 729.8125 690.742188 729.582031 692.253906 729.28125 C 693.765625 728.976562 695.261719 728.601562 696.738281 728.152344 C 698.214844 727.703125 699.664062 727.183594 701.089844 726.589844 C 702.515625 726 703.90625 725.339844 705.269531 724.609375 C 706.628906 723.882812 707.949219 723.089844 709.234375 722.230469 C 710.515625 721.375 711.753906 720.457031 712.945312 719.476562 C 714.136719 718.496094 715.28125 717.460938 716.371094 716.371094 C 717.460938 715.28125 718.496094 714.136719 719.476562 712.945312 C 720.457031 711.753906 721.375 710.515625 722.230469 709.234375 C 723.089844 707.949219 723.882812 706.628906 724.609375 705.269531 C 725.339844 703.90625 726 702.515625 726.589844 701.089844 C 727.183594 699.664062 727.703125 698.214844 728.152344 696.738281 C 728.601562 695.261719 728.976562 693.765625 729.28125 692.253906 C 729.582031 690.742188 729.8125 689.21875 729.964844 687.683594 C 730.117188 686.148438 730.195312 684.605469 730.199219 683.0625 L 730.199219 126.9375 C 730.195312 125.394531 730.117188 123.851562 729.964844 122.316406 C 729.8125 120.78125 729.582031 119.257812 729.28125 117.746094 C 728.976562 116.234375 728.601562 114.738281 728.152344 113.261719 C 727.703125 111.785156 727.183594 110.335938 726.589844 108.910156 C 726 107.484375 725.339844 106.09375 724.609375 104.730469 C 723.882812 103.371094 723.089844 102.050781 722.230469 100.765625 C 721.375 99.484375 720.457031 98.246094 719.476562 97.054688 C 718.496094 95.863281 717.460938 94.71875 716.371094 93.628906 C 715.28125 92.539062 714.136719 91.503906 712.945312 90.523438 C 711.753906 89.542969 710.515625 88.625 709.234375 87.769531 C 707.949219 86.910156 706.628906 86.117188 705.269531 85.390625 C 703.90625 84.660156 702.515625 84 701.089844 83.410156 C 699.664062 82.816406 698.214844 82.296875 696.738281 81.847656 C 695.261719 81.398438 693.765625 81.023438 692.253906 80.71875 C 690.742188 80.417969 689.21875 80.1875 687.683594 80.035156 C 686.148438 79.882812 684.605469 79.804688 683.0625 79.800781 Z M 126.9375 79.800781 " fill-opacity="1" fill-rule="nonzero"/><path fill="#ffffff" d="M 209.003906 687.78125 L 185.457031 687.78125 C 184.277344 687.78125 183.101562 687.722656 181.929688 687.605469 C 180.757812 687.488281 179.59375 687.316406 178.4375 687.082031 C 177.28125 686.851562 176.140625 686.566406 175.015625 686.222656 C 173.886719 685.878906 172.777344 685.484375 171.691406 685.03125 C 170.601562 684.582031 169.539062 684.078125 168.5 683.519531 C 167.460938 682.964844 166.453125 682.359375 165.472656 681.707031 C 164.492188 681.050781 163.546875 680.347656 162.636719 679.601562 C 161.726562 678.855469 160.855469 678.0625 160.019531 677.230469 C 159.1875 676.398438 158.398438 675.527344 157.648438 674.613281 C 156.902344 673.703125 156.203125 672.757812 155.546875 671.78125 C 154.890625 670.800781 154.285156 669.789062 153.730469 668.75 C 153.175781 667.714844 152.671875 666.648438 152.21875 665.5625 C 151.769531 664.472656 151.371094 663.363281 151.027344 662.238281 C 150.683594 661.109375 150.398438 659.96875 150.167969 658.8125 C 149.9375 657.65625 149.761719 656.492188 149.648438 655.320312 C 149.53125 654.148438 149.472656 652.972656 149.46875 651.796875 L 149.46875 316.207031 C 149.472656 315.027344 149.53125 313.851562 149.648438 312.679688 C 149.761719 311.507812 149.9375 310.34375 150.167969 309.1875 C 150.398438 308.03125 150.683594 306.890625 151.027344 305.765625 C 151.371094 304.636719 151.769531 303.527344 152.21875 302.441406 C 152.671875 301.351562 153.175781 300.289062 153.730469 299.25 C 154.285156 298.210938 154.890625 297.203125 155.546875 296.222656 C 156.203125 295.242188 156.902344 294.296875 157.648438 293.386719 C 158.398438 292.476562 159.1875 291.605469 160.019531 290.769531 C 160.855469 289.9375 161.726562 289.148438 162.636719 288.398438 C 163.546875 287.652344 164.492188 286.949219 165.472656 286.296875 C 166.453125 285.640625 167.460938 285.035156 168.5 284.480469 C 169.539062 283.925781 170.601562 283.421875 171.691406 282.96875 C 172.777344 282.519531 173.886719 282.121094 175.015625 281.777344 C 176.140625 281.433594 177.28125 281.148438 178.4375 280.917969 C 179.59375 280.6875 180.757812 280.511719 181.929688 280.398438 C 183.101562 280.28125 184.277344 280.222656 185.457031 280.21875 L 209.003906 280.21875 C 210.183594 280.222656 211.355469 280.28125 212.527344 280.398438 C 213.699219 280.515625 214.863281 280.691406 216.019531 280.921875 C 217.175781 281.152344 218.316406 281.4375 219.441406 281.78125 C 220.570312 282.125 221.675781 282.523438 222.765625 282.972656 C 223.851562 283.425781 224.914062 283.929688 225.953125 284.484375 C 226.992188 285.042969 228 285.648438 228.980469 286.300781 C 229.957031 286.957031 230.902344 287.660156 231.8125 288.40625 C 232.722656 289.152344 233.59375 289.945312 234.425781 290.777344 C 235.261719 291.609375 236.050781 292.480469 236.796875 293.394531 C 237.542969 294.304688 238.246094 295.25 238.898438 296.226562 C 239.554688 297.207031 240.160156 298.214844 240.714844 299.253906 C 241.269531 300.292969 241.773438 301.355469 242.222656 302.445312 C 242.675781 303.53125 243.070312 304.640625 243.414062 305.765625 C 243.757812 306.894531 244.042969 308.035156 244.273438 309.191406 C 244.503906 310.34375 244.679688 311.507812 244.796875 312.679688 C 244.910156 313.851562 244.96875 315.027344 244.972656 316.207031 L 244.972656 651.796875 C 244.96875 652.972656 244.910156 654.148438 244.796875 655.320312 C 244.679688 656.492188 244.503906 657.65625 244.273438 658.8125 C 244.042969 659.964844 243.757812 661.105469 243.414062 662.234375 C 243.070312 663.359375 242.675781 664.46875 242.222656 665.558594 C 241.773438 666.644531 241.269531 667.707031 240.714844 668.746094 C 240.160156 669.785156 239.554688 670.792969 238.898438 671.773438 C 238.246094 672.753906 237.542969 673.699219 236.796875 674.609375 C 236.050781 675.519531 235.261719 676.390625 234.425781 677.222656 C 233.59375 678.058594 232.722656 678.847656 231.8125 679.59375 C 230.902344 680.34375 229.957031 681.042969 228.980469 681.699219 C 228 682.355469 226.992188 682.960938 225.953125 683.515625 C 224.914062 684.070312 223.851562 684.574219 222.765625 685.027344 C 221.675781 685.480469 220.570312 685.875 219.441406 686.21875 C 218.316406 686.5625 217.175781 686.847656 216.019531 687.082031 C 214.863281 687.3125 213.699219 687.484375 212.527344 687.601562 C 211.355469 687.71875 210.183594 687.78125 209.003906 687.78125 Z M 185.457031 297.910156 C 184.859375 297.914062 184.261719 297.945312 183.667969 298.007812 C 183.070312 298.070312 182.480469 298.160156 181.894531 298.28125 C 181.308594 298.402344 180.730469 298.550781 180.160156 298.726562 C 179.585938 298.902344 179.027344 299.105469 178.472656 299.335938 C 177.921875 299.566406 177.382812 299.824219 176.855469 300.105469 C 176.328125 300.390625 175.816406 300.699219 175.320312 301.03125 C 174.824219 301.363281 174.34375 301.722656 173.882812 302.101562 C 173.421875 302.480469 172.980469 302.882812 172.554688 303.304688 C 172.132812 303.726562 171.730469 304.171875 171.351562 304.632812 C 170.972656 305.09375 170.613281 305.574219 170.28125 306.070312 C 169.949219 306.566406 169.640625 307.078125 169.355469 307.605469 C 169.074219 308.132812 168.816406 308.671875 168.585938 309.222656 C 168.355469 309.777344 168.152344 310.335938 167.976562 310.910156 C 167.800781 311.480469 167.652344 312.058594 167.53125 312.644531 C 167.414062 313.230469 167.320312 313.820312 167.257812 314.417969 C 167.195312 315.011719 167.164062 315.609375 167.160156 316.207031 L 167.160156 651.796875 C 167.160156 652.394531 167.191406 652.992188 167.25 653.589844 C 167.308594 654.183594 167.398438 654.777344 167.515625 655.363281 C 167.632812 655.953125 167.777344 656.53125 167.953125 657.105469 C 168.125 657.679688 168.328125 658.242188 168.558594 658.792969 C 168.785156 659.347656 169.042969 659.890625 169.324219 660.417969 C 169.609375 660.945312 169.914062 661.457031 170.25 661.957031 C 170.582031 662.453125 170.9375 662.933594 171.316406 663.398438 C 171.699219 663.859375 172.101562 664.304688 172.523438 664.726562 C 172.945312 665.152344 173.390625 665.554688 173.855469 665.933594 C 174.316406 666.3125 174.796875 666.671875 175.296875 667.003906 C 175.792969 667.335938 176.304688 667.644531 176.835938 667.925781 C 177.363281 668.210938 177.902344 668.464844 178.457031 668.695312 C 179.011719 668.925781 179.574219 669.125 180.148438 669.300781 C 180.71875 669.476562 181.300781 669.621094 181.886719 669.738281 C 182.476562 669.855469 183.066406 669.945312 183.664062 670.003906 C 184.257812 670.0625 184.855469 670.09375 185.457031 670.09375 L 209.003906 670.09375 C 209.601562 670.09375 210.199219 670.0625 210.796875 670.003906 C 211.390625 669.945312 211.984375 669.855469 212.570312 669.738281 C 213.160156 669.621094 213.738281 669.472656 214.3125 669.300781 C 214.882812 669.125 215.449219 668.925781 216 668.695312 C 216.554688 668.464844 217.09375 668.207031 217.621094 667.925781 C 218.148438 667.644531 218.664062 667.335938 219.160156 667.003906 C 219.660156 666.667969 220.136719 666.3125 220.601562 665.933594 C 221.0625 665.550781 221.507812 665.152344 221.929688 664.726562 C 222.351562 664.304688 222.753906 663.859375 223.132812 663.398438 C 223.515625 662.933594 223.871094 662.453125 224.203125 661.957031 C 224.535156 661.457031 224.84375 660.945312 225.125 660.414062 C 225.40625 659.886719 225.664062 659.347656 225.890625 658.792969 C 226.121094 658.238281 226.320312 657.675781 226.496094 657.105469 C 226.667969 656.53125 226.816406 655.949219 226.929688 655.363281 C 227.046875 654.777344 227.136719 654.183594 227.195312 653.589844 C 227.253906 652.992188 227.28125 652.394531 227.28125 651.796875 L 227.28125 316.207031 C 227.28125 315.605469 227.253906 315.011719 227.191406 314.414062 C 227.132812 313.820312 227.046875 313.226562 226.929688 312.640625 C 226.8125 312.050781 226.664062 311.472656 226.492188 310.898438 C 226.316406 310.328125 226.117188 309.765625 225.886719 309.210938 C 225.65625 308.65625 225.402344 308.117188 225.121094 307.589844 C 224.835938 307.0625 224.53125 306.546875 224.199219 306.050781 C 223.863281 305.554688 223.507812 305.074219 223.128906 304.609375 C 222.75 304.148438 222.347656 303.703125 221.925781 303.28125 C 221.5 302.855469 221.058594 302.453125 220.597656 302.074219 C 220.132812 301.695312 219.652344 301.335938 219.15625 301.003906 C 218.660156 300.671875 218.144531 300.363281 217.617188 300.082031 C 217.089844 299.796875 216.550781 299.542969 215.996094 299.3125 C 215.445312 299.082031 214.882812 298.878906 214.308594 298.707031 C 213.738281 298.53125 213.15625 298.382812 212.570312 298.265625 C 211.984375 298.148438 211.390625 298.058594 210.796875 298 C 210.199219 297.941406 209.601562 297.910156 209.003906 297.910156 Z M 185.457031 297.910156 " fill-opacity="1" fill-rule="nonzero"/><path fill="#ffffff" d="M 636.058594 687.78125 L 612.53125 687.78125 C 611.351562 687.78125 610.175781 687.722656 609.003906 687.605469 C 607.832031 687.488281 606.667969 687.316406 605.511719 687.082031 C 604.355469 686.851562 603.214844 686.566406 602.089844 686.222656 C 600.960938 685.878906 599.851562 685.484375 598.765625 685.03125 C 597.675781 684.582031 596.613281 684.078125 595.574219 683.519531 C 594.535156 682.964844 593.527344 682.359375 592.546875 681.707031 C 591.566406 681.050781 590.621094 680.347656 589.710938 679.601562 C 588.800781 678.855469 587.929688 678.0625 587.09375 677.230469 C 586.261719 676.398438 585.472656 675.527344 584.722656 674.613281 C 583.976562 673.703125 583.273438 672.757812 582.621094 671.78125 C 581.964844 670.800781 581.359375 669.789062 580.804688 668.75 C 580.25 667.714844 579.746094 666.648438 579.292969 665.5625 C 578.84375 664.472656 578.445312 663.363281 578.101562 662.238281 C 577.757812 661.109375 577.472656 659.96875 577.242188 658.8125 C 577.011719 657.65625 576.835938 656.492188 576.722656 655.320312 C 576.605469 654.148438 576.546875 652.972656 576.542969 651.796875 L 576.542969 518.78125 C 576.542969 516.347656 576.542969 513.878906 576.304688 511.410156 C 572.621094 456.996094 530.921875 434.019531 491.304688 435.402344 C 452.132812 436.746094 409.976562 463.410156 409.976562 518.722656 L 409.976562 651.742188 C 409.972656 652.917969 409.914062 654.09375 409.796875 655.265625 C 409.683594 656.4375 409.507812 657.601562 409.277344 658.757812 C 409.046875 659.910156 408.761719 661.050781 408.417969 662.179688 C 408.074219 663.304688 407.679688 664.414062 407.226562 665.5 C 406.777344 666.589844 406.273438 667.652344 405.71875 668.691406 C 405.160156 669.730469 404.558594 670.738281 403.902344 671.71875 C 403.25 672.699219 402.546875 673.644531 401.800781 674.554688 C 401.054688 675.464844 400.261719 676.335938 399.429688 677.167969 C 398.597656 678 397.726562 678.792969 396.816406 679.539062 C 395.90625 680.289062 394.960938 680.988281 393.984375 681.644531 C 393.003906 682.296875 391.996094 682.902344 390.957031 683.460938 C 389.917969 684.015625 388.855469 684.519531 387.765625 684.972656 C 386.679688 685.421875 385.574219 685.820312 384.445312 686.164062 C 383.320312 686.507812 382.179688 686.792969 381.023438 687.027344 C 379.867188 687.257812 378.703125 687.429688 377.53125 687.546875 C 376.359375 687.664062 375.183594 687.722656 374.007812 687.726562 L 350.460938 687.726562 C 349.28125 687.722656 348.105469 687.664062 346.933594 687.546875 C 345.761719 687.429688 344.597656 687.257812 343.445312 687.027344 C 342.289062 686.792969 341.148438 686.507812 340.023438 686.164062 C 338.894531 685.820312 337.789062 685.421875 336.699219 684.972656 C 335.613281 684.519531 334.550781 684.015625 333.511719 683.460938 C 332.472656 682.902344 331.464844 682.296875 330.484375 681.644531 C 329.503906 680.988281 328.5625 680.289062 327.652344 679.539062 C 326.742188 678.792969 325.867188 678 325.035156 677.167969 C 324.203125 676.335938 323.414062 675.464844 322.667969 674.554688 C 321.917969 673.644531 321.21875 672.699219 320.5625 671.71875 C 319.910156 670.738281 319.304688 669.730469 318.75 668.691406 C 318.195312 667.652344 317.691406 666.589844 317.238281 665.5 C 316.789062 664.414062 316.390625 663.304688 316.050781 662.179688 C 315.707031 661.050781 315.417969 659.910156 315.1875 658.757812 C 314.957031 657.601562 314.785156 656.4375 314.667969 655.265625 C 314.550781 654.09375 314.492188 652.917969 314.492188 651.742188 L 314.492188 316.207031 C 314.492188 315.027344 314.550781 313.851562 314.667969 312.679688 C 314.785156 311.507812 314.957031 310.34375 315.1875 309.191406 C 315.417969 308.035156 315.707031 306.894531 316.050781 305.765625 C 316.390625 304.640625 316.789062 303.53125 317.238281 302.445312 C 317.691406 301.355469 318.195312 300.292969 318.75 299.253906 C 319.304688 298.214844 319.910156 297.207031 320.5625 296.226562 C 321.21875 295.25 321.917969 294.304688 322.667969 293.394531 C 323.414062 292.480469 324.203125 291.609375 325.035156 290.777344 C 325.867188 289.945312 326.742188 289.152344 327.652344 288.40625 C 328.5625 287.660156 329.503906 286.957031 330.484375 286.300781 C 331.464844 285.648438 332.472656 285.042969 333.511719 284.484375 C 334.550781 283.929688 335.613281 283.425781 336.699219 282.972656 C 337.789062 282.523438 338.894531 282.125 340.023438 281.78125 C 341.148438 281.4375 342.289062 281.152344 343.445312 280.921875 C 344.597656 280.691406 345.761719 280.515625 346.933594 280.398438 C 348.105469 280.28125 349.28125 280.222656 350.460938 280.21875 L 374.007812 280.21875 C 375.183594 280.222656 376.359375 280.28125 377.53125 280.398438 C 378.703125 280.515625 379.867188 280.691406 381.023438 280.921875 C 382.179688 281.152344 383.320312 281.4375 384.445312 281.78125 C 385.570312 282.125 386.679688 282.523438 387.765625 282.972656 C 388.855469 283.425781 389.917969 283.929688 390.957031 284.484375 C 391.996094 285.042969 393.003906 285.648438 393.984375 286.300781 C 394.960938 286.957031 395.90625 287.660156 396.816406 288.40625 C 397.726562 289.152344 398.597656 289.945312 399.429688 290.777344 C 400.261719 291.609375 401.054688 292.480469 401.800781 293.394531 C 402.546875 294.304688 403.25 295.25 403.902344 296.226562 C 404.558594 297.207031 405.164062 298.214844 405.71875 299.253906 C 406.273438 300.292969 406.777344 301.355469 407.226562 302.445312 C 407.679688 303.53125 408.074219 304.640625 408.417969 305.765625 C 408.761719 306.894531 409.046875 308.035156 409.277344 309.191406 C 409.507812 310.34375 409.683594 311.507812 409.796875 312.679688 C 409.914062 313.851562 409.972656 315.027344 409.976562 316.207031 L 409.976562 330.707031 C 419.691406 326.574219 429.722656 323.449219 440.066406 321.335938 C 450.414062 319.226562 460.867188 318.164062 471.425781 318.160156 C 474.707031 318.164062 477.988281 318.246094 481.265625 318.410156 C 484.542969 318.574219 487.816406 318.820312 491.082031 319.144531 C 494.347656 319.46875 497.605469 319.875 500.851562 320.359375 C 504.097656 320.84375 507.332031 321.40625 510.550781 322.050781 C 513.769531 322.691406 516.96875 323.414062 520.152344 324.214844 C 523.335938 325.015625 526.496094 325.890625 529.636719 326.847656 C 532.777344 327.800781 535.894531 328.832031 538.984375 329.941406 C 542.074219 331.050781 545.132812 332.230469 548.164062 333.488281 C 551.195312 334.746094 554.195312 336.078125 557.164062 337.484375 C 560.128906 338.886719 563.058594 340.363281 565.953125 341.914062 C 568.847656 343.460938 571.703125 345.078125 574.515625 346.769531 C 577.332031 348.457031 580.101562 350.214844 582.832031 352.039062 C 585.558594 353.863281 588.242188 355.75 590.878906 357.707031 C 593.515625 359.664062 596.101562 361.683594 598.636719 363.765625 C 601.175781 365.847656 603.660156 367.992188 606.089844 370.195312 C 608.523438 372.398438 610.898438 374.664062 613.21875 376.984375 C 615.542969 379.304688 617.804688 381.679688 620.007812 384.113281 C 622.214844 386.546875 624.355469 389.03125 626.4375 391.566406 C 628.523438 394.105469 630.539062 396.691406 632.496094 399.324219 C 634.453125 401.960938 636.34375 404.644531 638.167969 407.371094 C 639.992188 410.101562 641.746094 412.875 643.4375 415.6875 C 645.125 418.503906 646.742188 421.355469 648.292969 424.25 C 649.839844 427.144531 651.316406 430.074219 652.722656 433.042969 C 654.125 436.007812 655.457031 439.007812 656.714844 442.039062 C 657.972656 445.070312 659.15625 448.132812 660.261719 451.222656 C 661.371094 454.3125 662.402344 457.425781 663.355469 460.566406 C 664.3125 463.707031 665.191406 466.871094 665.988281 470.050781 C 666.789062 473.234375 667.511719 476.4375 668.152344 479.65625 C 668.796875 482.875 669.359375 486.105469 669.84375 489.351562 C 670.328125 492.601562 670.734375 495.855469 671.058594 499.121094 C 671.382812 502.386719 671.628906 505.660156 671.792969 508.9375 C 671.957031 512.21875 672.042969 515.496094 672.046875 518.78125 L 672.046875 651.796875 C 672.042969 652.972656 671.984375 654.148438 671.867188 655.320312 C 671.753906 656.492188 671.578125 657.65625 671.347656 658.8125 C 671.117188 659.96875 670.832031 661.109375 670.488281 662.238281 C 670.144531 663.363281 669.746094 664.472656 669.296875 665.5625 C 668.84375 666.648438 668.339844 667.714844 667.785156 668.75 C 667.230469 669.789062 666.625 670.800781 665.96875 671.78125 C 665.316406 672.757812 664.613281 673.703125 663.867188 674.613281 C 663.117188 675.527344 662.328125 676.398438 661.496094 677.230469 C 660.660156 678.0625 659.789062 678.855469 658.878906 679.601562 C 657.96875 680.347656 657.023438 681.050781 656.042969 681.707031 C 655.0625 682.359375 654.054688 682.964844 653.015625 683.519531 C 651.976562 684.078125 650.914062 684.582031 649.824219 685.03125 C 648.738281 685.484375 647.628906 685.878906 646.5 686.222656 C 645.375 686.566406 644.234375 686.851562 643.078125 687.082031 C 641.921875 687.3125 640.757812 687.488281 639.585938 687.605469 C 638.414062 687.722656 637.238281 687.78125 636.058594 687.78125 Z M 494.4375 417.714844 C 539.988281 417.714844 589.515625 446.183594 593.9375 510.230469 C 594.140625 513.066406 594.234375 515.941406 594.234375 518.78125 L 594.234375 651.796875 C 594.234375 652.394531 594.265625 652.992188 594.324219 653.589844 C 594.382812 654.183594 594.46875 654.777344 594.589844 655.363281 C 594.707031 655.953125 594.851562 656.53125 595.023438 657.105469 C 595.199219 657.679688 595.402344 658.242188 595.632812 658.792969 C 595.859375 659.347656 596.117188 659.890625 596.398438 660.417969 C 596.683594 660.945312 596.988281 661.457031 597.324219 661.957031 C 597.65625 662.453125 598.011719 662.933594 598.390625 663.398438 C 598.773438 663.859375 599.175781 664.304688 599.597656 664.726562 C 600.019531 665.152344 600.464844 665.554688 600.925781 665.933594 C 601.390625 666.3125 601.871094 666.671875 602.371094 667.003906 C 602.867188 667.335938 603.378906 667.644531 603.910156 667.925781 C 604.4375 668.210938 604.976562 668.464844 605.53125 668.695312 C 606.085938 668.925781 606.648438 669.125 607.222656 669.300781 C 607.792969 669.476562 608.375 669.621094 608.960938 669.738281 C 609.550781 669.855469 610.140625 669.945312 610.738281 670.003906 C 611.332031 670.0625 611.929688 670.09375 612.53125 670.09375 L 636.058594 670.09375 C 636.660156 670.09375 637.257812 670.0625 637.851562 670.003906 C 638.449219 669.945312 639.039062 669.855469 639.628906 669.738281 C 640.214844 669.621094 640.796875 669.476562 641.371094 669.300781 C 641.941406 669.125 642.503906 668.925781 643.058594 668.695312 C 643.613281 668.464844 644.152344 668.210938 644.679688 667.925781 C 645.210938 667.644531 645.722656 667.335938 646.222656 667.003906 C 646.71875 666.671875 647.199219 666.3125 647.664062 665.933594 C 648.125 665.554688 648.570312 665.152344 648.992188 664.726562 C 649.414062 664.304688 649.816406 663.859375 650.199219 663.398438 C 650.578125 662.933594 650.933594 662.453125 651.269531 661.957031 C 651.601562 661.457031 651.910156 660.945312 652.191406 660.417969 C 652.472656 659.890625 652.730469 659.347656 652.960938 658.792969 C 653.1875 658.242188 653.390625 657.679688 653.566406 657.105469 C 653.738281 656.53125 653.886719 655.953125 654.003906 655.363281 C 654.121094 654.777344 654.207031 654.183594 654.265625 653.589844 C 654.328125 652.992188 654.355469 652.394531 654.355469 651.796875 L 654.355469 518.78125 C 654.351562 515.785156 654.277344 512.796875 654.125 509.804688 C 653.976562 506.816406 653.753906 503.832031 653.457031 500.855469 C 653.160156 497.878906 652.792969 494.90625 652.351562 491.949219 C 651.910156 488.988281 651.394531 486.039062 650.808594 483.105469 C 650.222656 480.171875 649.5625 477.25 648.835938 474.347656 C 648.105469 471.445312 647.304688 468.5625 646.433594 465.699219 C 645.5625 462.835938 644.625 459.996094 643.613281 457.179688 C 642.601562 454.359375 641.523438 451.570312 640.378906 448.804688 C 639.230469 446.042969 638.015625 443.308594 636.734375 440.601562 C 635.457031 437.898438 634.109375 435.226562 632.695312 432.585938 C 631.285156 429.945312 629.808594 427.34375 628.269531 424.777344 C 626.730469 422.210938 625.128906 419.683594 623.464844 417.195312 C 621.800781 414.707031 620.078125 412.261719 618.292969 409.859375 C 616.511719 407.453125 614.671875 405.097656 612.769531 402.78125 C 610.871094 400.46875 608.917969 398.203125 606.90625 395.988281 C 604.898438 393.769531 602.835938 391.601562 600.71875 389.488281 C 598.601562 387.371094 596.433594 385.308594 594.21875 383.296875 C 592 381.285156 589.734375 379.332031 587.421875 377.433594 C 585.109375 375.535156 582.75 373.691406 580.347656 371.910156 C 577.941406 370.125 575.496094 368.402344 573.007812 366.738281 C 570.519531 365.074219 567.992188 363.472656 565.425781 361.933594 C 562.859375 360.394531 560.257812 358.917969 557.617188 357.507812 C 554.980469 356.097656 552.308594 354.75 549.601562 353.46875 C 546.898438 352.1875 544.164062 350.972656 541.398438 349.828125 C 538.632812 348.679688 535.84375 347.601562 533.027344 346.589844 C 530.207031 345.582031 527.367188 344.640625 524.503906 343.769531 C 521.640625 342.898438 518.757812 342.097656 515.855469 341.371094 C 512.953125 340.640625 510.035156 339.984375 507.097656 339.394531 C 504.164062 338.808594 501.21875 338.296875 498.257812 337.855469 C 495.296875 337.414062 492.328125 337.042969 489.347656 336.746094 C 486.371094 336.449219 483.386719 336.226562 480.398438 336.078125 C 477.410156 335.925781 474.417969 335.851562 471.425781 335.847656 C 465.679688 335.851562 459.957031 336.207031 454.253906 336.917969 C 448.554688 337.628906 442.917969 338.6875 437.347656 340.097656 C 431.777344 341.503906 426.316406 343.253906 420.964844 345.335938 C 415.609375 347.421875 410.40625 349.832031 405.351562 352.558594 C 405.015625 352.742188 404.667969 352.898438 404.3125 353.035156 C 403.957031 353.171875 403.59375 353.285156 403.222656 353.371094 C 402.851562 353.460938 402.476562 353.527344 402.097656 353.566406 C 401.71875 353.609375 401.339844 353.625 400.957031 353.617188 C 400.578125 353.609375 400.199219 353.574219 399.820312 353.519531 C 399.445312 353.460938 399.074219 353.378906 398.707031 353.277344 C 398.339844 353.171875 397.980469 353.042969 397.632812 352.890625 C 397.28125 352.738281 396.945312 352.566406 396.617188 352.371094 C 396.289062 352.175781 395.976562 351.960938 395.675781 351.726562 C 395.375 351.492188 395.089844 351.238281 394.824219 350.964844 C 394.558594 350.695312 394.308594 350.40625 394.078125 350.101562 C 393.847656 349.796875 393.640625 349.480469 393.449219 349.148438 C 393.261719 348.816406 393.09375 348.476562 392.949219 348.125 C 392.804688 347.769531 392.683594 347.410156 392.585938 347.042969 C 392.488281 346.671875 392.414062 346.300781 392.363281 345.921875 C 392.3125 345.546875 392.289062 345.164062 392.285156 344.785156 L 392.285156 316.207031 C 392.285156 315.605469 392.253906 315.011719 392.195312 314.414062 C 392.136719 313.820312 392.050781 313.226562 391.933594 312.640625 C 391.816406 312.050781 391.667969 311.472656 391.496094 310.898438 C 391.320312 310.328125 391.121094 309.765625 390.890625 309.210938 C 390.660156 308.65625 390.40625 308.117188 390.121094 307.589844 C 389.839844 307.0625 389.535156 306.546875 389.199219 306.050781 C 388.867188 305.554688 388.511719 305.074219 388.132812 304.609375 C 387.753906 304.148438 387.351562 303.703125 386.929688 303.28125 C 386.503906 302.855469 386.0625 302.453125 385.601562 302.074219 C 385.136719 301.695312 384.65625 301.335938 384.160156 301.003906 C 383.664062 300.671875 383.148438 300.363281 382.621094 300.082031 C 382.09375 299.796875 381.554688 299.542969 381 299.3125 C 380.449219 299.082031 379.886719 298.878906 379.3125 298.707031 C 378.738281 298.53125 378.160156 298.382812 377.574219 298.265625 C 376.984375 298.148438 376.394531 298.058594 375.800781 298 C 375.203125 297.941406 374.605469 297.910156 374.007812 297.910156 L 350.460938 297.910156 C 349.859375 297.910156 349.261719 297.941406 348.667969 298 C 348.070312 298.058594 347.480469 298.148438 346.894531 298.265625 C 346.308594 298.382812 345.726562 298.53125 345.15625 298.707031 C 344.582031 298.878906 344.019531 299.082031 343.464844 299.3125 C 342.914062 299.542969 342.371094 299.796875 341.84375 300.082031 C 341.316406 300.363281 340.804688 300.671875 340.308594 301.003906 C 339.808594 301.335938 339.328125 301.695312 338.867188 302.074219 C 338.40625 302.453125 337.960938 302.855469 337.539062 303.28125 C 337.117188 303.703125 336.714844 304.148438 336.335938 304.609375 C 335.953125 305.074219 335.597656 305.554688 335.265625 306.050781 C 334.933594 306.546875 334.625 307.0625 334.34375 307.589844 C 334.0625 308.117188 333.804688 308.65625 333.578125 309.210938 C 333.347656 309.765625 333.144531 310.328125 332.972656 310.898438 C 332.796875 311.472656 332.652344 312.054688 332.535156 312.640625 C 332.417969 313.226562 332.328125 313.820312 332.269531 314.414062 C 332.210938 315.011719 332.179688 315.605469 332.179688 316.207031 L 332.179688 651.796875 C 332.179688 652.394531 332.210938 652.992188 332.269531 653.589844 C 332.328125 654.183594 332.414062 654.777344 332.53125 655.363281 C 332.648438 655.949219 332.792969 656.53125 332.96875 657.105469 C 333.140625 657.675781 333.34375 658.238281 333.570312 658.792969 C 333.800781 659.347656 334.054688 659.886719 334.339844 660.414062 C 334.621094 660.945312 334.929688 661.457031 335.261719 661.953125 C 335.59375 662.453125 335.949219 662.933594 336.328125 663.398438 C 336.707031 663.859375 337.109375 664.304688 337.535156 664.726562 C 337.957031 665.152344 338.398438 665.550781 338.863281 665.933594 C 339.324219 666.3125 339.804688 666.667969 340.304688 667.003906 C 340.800781 667.335938 341.3125 667.644531 341.839844 667.925781 C 342.371094 668.207031 342.910156 668.464844 343.464844 668.695312 C 344.015625 668.925781 344.578125 669.125 345.152344 669.300781 C 345.726562 669.472656 346.304688 669.621094 346.890625 669.738281 C 347.480469 669.855469 348.070312 669.945312 348.667969 670.003906 C 349.261719 670.0625 349.859375 670.09375 350.460938 670.09375 L 374.007812 670.09375 C 374.605469 670.09375 375.203125 670.0625 375.800781 670.003906 C 376.394531 669.945312 376.988281 669.855469 377.574219 669.738281 C 378.160156 669.621094 378.742188 669.472656 379.316406 669.300781 C 379.886719 669.125 380.449219 668.925781 381.003906 668.695312 C 381.558594 668.464844 382.097656 668.207031 382.625 667.925781 C 383.152344 667.644531 383.667969 667.335938 384.164062 667.003906 C 384.660156 666.667969 385.140625 666.3125 385.605469 665.933594 C 386.066406 665.550781 386.511719 665.152344 386.933594 664.726562 C 387.355469 664.304688 387.757812 663.859375 388.136719 663.398438 C 388.519531 662.933594 388.875 662.453125 389.207031 661.957031 C 389.539062 661.457031 389.847656 660.945312 390.128906 660.414062 C 390.410156 659.886719 390.667969 659.347656 390.894531 658.792969 C 391.125 658.238281 391.324219 657.675781 391.5 657.105469 C 391.671875 656.53125 391.816406 655.949219 391.933594 655.363281 C 392.050781 654.777344 392.140625 654.183594 392.199219 653.589844 C 392.257812 652.992188 392.285156 652.394531 392.285156 651.796875 L 392.285156 518.78125 C 392.285156 488.746094 402.953125 463.078125 423.09375 444.558594 C 427.714844 440.417969 432.660156 436.714844 437.9375 433.453125 C 443.214844 430.1875 448.734375 427.414062 454.503906 425.125 C 460.269531 422.839844 466.195312 421.082031 472.273438 419.84375 C 478.355469 418.609375 484.496094 417.917969 490.699219 417.769531 C 491.933594 417.730469 493.1875 417.714844 494.4375 417.714844 Z M 494.4375 417.714844 " fill-opacity="1" fill-rule="nonzero"/><path fill="#ffffff" d="M 197.230469 240.769531 C 195.289062 240.769531 193.351562 240.675781 191.421875 240.484375 C 189.488281 240.292969 187.570312 240.011719 185.667969 239.632812 C 183.761719 239.253906 181.882812 238.78125 180.023438 238.21875 C 178.164062 237.65625 176.339844 237 174.546875 236.257812 C 172.753906 235.515625 171 234.6875 169.289062 233.769531 C 167.574219 232.855469 165.914062 231.859375 164.296875 230.78125 C 162.683594 229.703125 161.125 228.546875 159.625 227.316406 C 158.125 226.082031 156.6875 224.78125 155.316406 223.410156 C 153.941406 222.035156 152.640625 220.597656 151.410156 219.097656 C 150.175781 217.597656 149.023438 216.039062 147.945312 214.425781 C 146.867188 212.8125 145.867188 211.148438 144.953125 209.4375 C 144.039062 207.726562 143.210938 205.972656 142.464844 204.179688 C 141.722656 202.386719 141.070312 200.558594 140.507812 198.703125 C 139.941406 196.84375 139.472656 194.960938 139.09375 193.058594 C 138.714844 191.15625 138.429688 189.238281 138.238281 187.304688 C 138.050781 185.371094 137.953125 183.4375 137.953125 181.496094 C 137.953125 179.554688 138.050781 177.617188 138.238281 175.683594 C 138.429688 173.753906 138.714844 171.835938 139.09375 169.929688 C 139.472656 168.027344 139.941406 166.144531 140.507812 164.289062 C 141.070312 162.429688 141.722656 160.605469 142.464844 158.8125 C 143.210938 157.015625 144.039062 155.265625 144.953125 153.550781 C 145.867188 151.839844 146.867188 150.175781 147.945312 148.5625 C 149.023438 146.949219 150.175781 145.390625 151.410156 143.890625 C 152.640625 142.390625 153.941406 140.953125 155.316406 139.582031 C 156.6875 138.207031 158.125 136.90625 159.625 135.671875 C 161.125 134.441406 162.683594 133.285156 164.296875 132.207031 C 165.914062 131.128906 167.574219 130.132812 169.289062 129.21875 C 171 128.300781 172.753906 127.472656 174.546875 126.730469 C 176.339844 125.988281 178.164062 125.335938 180.023438 124.769531 C 181.882812 124.207031 183.761719 123.734375 185.667969 123.359375 C 187.570312 122.980469 189.488281 122.695312 191.421875 122.503906 C 193.351562 122.3125 195.289062 122.21875 197.230469 122.21875 C 199.171875 122.21875 201.109375 122.3125 203.039062 122.503906 C 204.972656 122.695312 206.890625 122.980469 208.792969 123.359375 C 210.699219 123.734375 212.578125 124.207031 214.4375 124.769531 C 216.292969 125.335938 218.121094 125.988281 219.914062 126.730469 C 221.707031 127.472656 223.460938 128.300781 225.171875 129.21875 C 226.886719 130.132812 228.546875 131.128906 230.164062 132.207031 C 231.777344 133.285156 233.332031 134.441406 234.835938 135.671875 C 236.335938 136.90625 237.773438 138.207031 239.144531 139.582031 C 240.515625 140.953125 241.820312 142.390625 243.050781 143.890625 C 244.28125 145.390625 245.4375 146.949219 246.515625 148.5625 C 247.59375 150.175781 248.589844 151.839844 249.507812 153.550781 C 250.421875 155.265625 251.25 157.015625 251.992188 158.8125 C 252.738281 160.605469 253.390625 162.429688 253.953125 164.289062 C 254.515625 166.144531 254.988281 168.027344 255.367188 169.929688 C 255.746094 171.835938 256.03125 173.753906 256.21875 175.683594 C 256.410156 177.617188 256.507812 179.554688 256.507812 181.496094 C 256.503906 183.433594 256.40625 185.371094 256.214844 187.304688 C 256.023438 189.234375 255.738281 191.152344 255.359375 193.054688 C 254.976562 194.957031 254.507812 196.839844 253.941406 198.695312 C 253.375 200.550781 252.722656 202.378906 251.980469 204.167969 C 251.234375 205.960938 250.40625 207.714844 249.492188 209.425781 C 248.574219 211.136719 247.578125 212.800781 246.5 214.414062 C 245.421875 216.027344 244.265625 217.582031 243.035156 219.082031 C 241.804688 220.585938 240.5 222.019531 239.128906 223.394531 C 237.757812 224.765625 236.320312 226.066406 234.820312 227.296875 C 233.320312 228.53125 231.761719 229.683594 230.148438 230.765625 C 228.535156 231.84375 226.875 232.839844 225.160156 233.753906 C 223.449219 234.671875 221.699219 235.5 219.90625 236.242188 C 218.113281 236.988281 216.289062 237.640625 214.429688 238.207031 C 212.574219 238.769531 210.695312 239.242188 208.789062 239.621094 C 206.886719 240.003906 204.96875 240.289062 203.039062 240.480469 C 201.105469 240.671875 199.171875 240.769531 197.230469 240.769531 Z M 197.230469 139.90625 C 195.867188 139.90625 194.507812 139.972656 193.152344 140.109375 C 191.796875 140.242188 190.453125 140.441406 189.117188 140.707031 C 187.78125 140.972656 186.460938 141.304688 185.15625 141.699219 C 183.855469 142.09375 182.574219 142.550781 181.316406 143.074219 C 180.058594 143.59375 178.828125 144.175781 177.625 144.816406 C 176.425781 145.460938 175.257812 146.160156 174.125 146.917969 C 172.992188 147.671875 171.902344 148.484375 170.847656 149.347656 C 169.792969 150.210938 168.785156 151.125 167.824219 152.089844 C 166.859375 153.050781 165.945312 154.058594 165.082031 155.113281 C 164.21875 156.164062 163.410156 157.257812 162.652344 158.390625 C 161.894531 159.523438 161.195312 160.6875 160.554688 161.890625 C 159.910156 163.089844 159.328125 164.320312 158.808594 165.578125 C 158.289062 166.839844 157.828125 168.117188 157.433594 169.421875 C 157.039062 170.726562 156.707031 172.046875 156.441406 173.382812 C 156.175781 174.71875 155.976562 176.0625 155.84375 177.417969 C 155.710938 178.773438 155.644531 180.132812 155.644531 181.496094 C 155.644531 182.855469 155.710938 184.214844 155.84375 185.570312 C 155.976562 186.925781 156.175781 188.273438 156.441406 189.609375 C 156.707031 190.945312 157.039062 192.261719 157.433594 193.566406 C 157.828125 194.871094 158.289062 196.152344 158.808594 197.410156 C 159.328125 198.667969 159.910156 199.898438 160.554688 201.097656 C 161.195312 202.300781 161.894531 203.464844 162.652344 204.597656 C 163.410156 205.730469 164.21875 206.824219 165.082031 207.878906 C 165.945312 208.929688 166.859375 209.9375 167.824219 210.902344 C 168.785156 211.863281 169.792969 212.777344 170.847656 213.640625 C 171.902344 214.503906 172.992188 215.316406 174.125 216.074219 C 175.257812 216.828125 176.425781 217.527344 177.625 218.171875 C 178.828125 218.8125 180.058594 219.394531 181.316406 219.914062 C 182.574219 220.4375 183.855469 220.894531 185.15625 221.289062 C 186.460938 221.6875 187.78125 222.015625 189.117188 222.28125 C 190.453125 222.546875 191.796875 222.746094 193.152344 222.882812 C 194.507812 223.015625 195.867188 223.082031 197.230469 223.082031 C 198.59375 223.082031 199.949219 223.015625 201.304688 222.882812 C 202.660156 222.746094 204.007812 222.546875 205.34375 222.28125 C 206.679688 222.015625 208 221.6875 209.300781 221.289062 C 210.605469 220.894531 211.886719 220.4375 213.144531 219.914062 C 214.402344 219.394531 215.632812 218.8125 216.835938 218.171875 C 218.035156 217.527344 219.203125 216.828125 220.335938 216.074219 C 221.46875 215.316406 222.558594 214.503906 223.613281 213.640625 C 224.664062 212.777344 225.671875 211.863281 226.636719 210.902344 C 227.601562 209.9375 228.511719 208.929688 229.378906 207.878906 C 230.242188 206.824219 231.050781 205.730469 231.808594 204.597656 C 232.566406 203.464844 233.265625 202.300781 233.90625 201.097656 C 234.546875 199.898438 235.128906 198.667969 235.652344 197.410156 C 236.171875 196.152344 236.632812 194.871094 237.027344 193.566406 C 237.421875 192.261719 237.753906 190.945312 238.019531 189.609375 C 238.285156 188.273438 238.484375 186.925781 238.617188 185.570312 C 238.75 184.214844 238.816406 182.855469 238.816406 181.496094 C 238.816406 180.132812 238.75 178.773438 238.613281 177.417969 C 238.480469 176.0625 238.277344 174.71875 238.011719 173.382812 C 237.746094 172.046875 237.414062 170.730469 237.019531 169.425781 C 236.621094 168.125 236.164062 166.84375 235.640625 165.585938 C 235.121094 164.328125 234.539062 163.097656 233.894531 161.898438 C 233.253906 160.695312 232.554688 159.53125 231.796875 158.398438 C 231.039062 157.265625 230.230469 156.175781 229.367188 155.121094 C 228.503906 154.070312 227.589844 153.0625 226.625 152.097656 C 225.664062 151.136719 224.65625 150.222656 223.601562 149.359375 C 222.550781 148.496094 221.457031 147.683594 220.324219 146.925781 C 219.195312 146.171875 218.027344 145.472656 216.828125 144.828125 C 215.625 144.1875 214.398438 143.605469 213.140625 143.082031 C 211.882812 142.5625 210.601562 142.101562 209.296875 141.707031 C 207.996094 141.308594 206.675781 140.980469 205.339844 140.710938 C 204.003906 140.445312 202.660156 140.246094 201.304688 140.109375 C 199.949219 139.976562 198.59375 139.910156 197.230469 139.90625 Z M 197.230469 139.90625 " fill-opacity="1" fill-rule="nonzero"/></svg>