<svg xmlns="http://www.w3.org/2000/svg" xmlns:xlink="http://www.w3.org/1999/xlink" width="500" zoomAndPan="magnify" viewBox="0 0 375 164.249993" height="219" preserveAspectRatio="xMidYMid meet" version="1.0"><defs><g/></defs><g fill="#fff9f9" fill-opacity="1"><g transform="translate(-0.662489, 118.365276)"><g><path d="M 7.234375 0 C 7.628906 -2.695312 7.828125 -5.082031 7.828125 -7.15625 C 7.828125 -9.238281 7.816406 -10.664062 7.796875 -11.4375 C 7.773438 -12.207031 7.738281 -12.96875 7.6875 -13.71875 C 7.644531 -14.476562 7.601562 -15.1875 7.5625 -15.84375 L 7.359375 -17.5 L 26.59375 -17.5 C 26.457031 -15.820312 26.390625 -14.453125 26.390625 -13.390625 L 26.25 -10.609375 C 26.25 -9.765625 26.25 -8.179688 26.25 -5.859375 C 26.25 -3.546875 26.363281 -1.59375 26.59375 0 Z M 7.234375 0 "/></g></g></g><g fill="#fff9f9" fill-opacity="1"><g transform="translate(29.213978, 118.365276)"><g><path d="M 26.328125 -66.765625 C 31.273438 -69.328125 36.332031 -70.609375 41.5 -70.609375 C 46.675781 -70.609375 51.128906 -69.800781 54.859375 -68.1875 C 58.597656 -66.582031 61.882812 -64.273438 64.71875 -61.265625 C 70.863281 -54.585938 73.9375 -46.144531 73.9375 -35.9375 C 73.9375 -24.75 70.597656 -15.734375 63.921875 -8.890625 C 57.515625 -2.296875 49.535156 1 39.984375 1 C 31.585938 1 24.671875 -1.1875 19.234375 -5.5625 C 13.128906 -10.519531 10.078125 -17.351562 10.078125 -26.0625 L 10.078125 -98.671875 L 26.328125 -98.671875 Z M 26.328125 -26.25 C 26.328125 -18.476562 31.164062 -14.59375 40.84375 -14.59375 C 45.570312 -14.59375 49.550781 -16.671875 52.78125 -20.828125 C 56.050781 -25.066406 57.6875 -30.347656 57.6875 -36.671875 C 57.6875 -43.035156 55.960938 -47.832031 52.515625 -51.0625 C 49.421875 -53.925781 45.265625 -55.359375 40.046875 -55.359375 C 36.910156 -55.359375 33.441406 -54.300781 29.640625 -52.1875 C 28.441406 -51.519531 27.335938 -50.789062 26.328125 -50 Z M 26.328125 -26.25 "/></g></g></g><g fill="#fff9f9" fill-opacity="1"><g transform="translate(103.977564, 118.365276)"><g><path d="M 25.390625 -7.421875 C 25.390625 -3.617188 25.476562 -1.144531 25.65625 0 L 9.15625 0 L 9.15625 -69.296875 L 25.390625 -69.296875 L 25.390625 -64.1875 C 29.148438 -68.46875 33.097656 -70.609375 37.234375 -70.609375 C 41.367188 -70.609375 44.628906 -70.101562 47.015625 -69.09375 L 45.8125 -51.25 L 45.546875 -51.0625 C 44.003906 -53.800781 40.800781 -55.171875 35.9375 -55.171875 C 34.082031 -55.171875 32.191406 -54.539062 30.265625 -53.28125 C 28.347656 -52.019531 26.722656 -50.347656 25.390625 -48.265625 Z M 25.390625 -7.421875 "/></g></g></g><g fill="#fff9f9" fill-opacity="1"><g transform="translate(145.390754, 118.365276)"><g><path d="M 51.25 -6.03125 C 45.59375 -1.34375 39.425781 1 32.75 1 C 25.59375 1 19.976562 -1.410156 15.90625 -6.234375 C 12.019531 -10.921875 10.078125 -17.351562 10.078125 -25.53125 L 10.078125 -51.859375 C 10.078125 -60.691406 9.890625 -65.757812 9.515625 -67.0625 C 9.140625 -68.375 8.863281 -69.207031 8.6875 -69.5625 C 10.71875 -69.382812 12.835938 -69.296875 15.046875 -69.296875 L 20.5625 -69.296875 C 22.019531 -69.296875 23.941406 -69.359375 26.328125 -69.484375 L 26.328125 -31.09375 C 26.328125 -21.988281 28.800781 -16.707031 33.75 -15.25 C 35.25 -14.8125 36.882812 -14.59375 38.65625 -14.59375 C 43.875 -14.59375 48.070312 -16.492188 51.25 -20.296875 L 51.25 -69.296875 L 67.703125 -69.296875 L 67.703125 -8.484375 C 67.703125 -4.597656 67.878906 -1.769531 68.234375 0 L 51.25 0 Z M 51.25 -6.03125 "/></g></g></g><g fill="#fff9f9" fill-opacity="1"><g transform="translate(220.552152, 118.365276)"><g><path d="M 27.1875 -8.484375 C 27.1875 -4.597656 27.363281 -1.769531 27.71875 0 L 11.078125 0 L 11.078125 -69.296875 L 27.1875 -69.296875 L 27.1875 -63.390625 C 33.019531 -68.203125 39.253906 -70.609375 45.890625 -70.609375 C 53.140625 -70.609375 58.925781 -68.144531 63.25 -63.21875 C 67.582031 -58.289062 69.75 -51.804688 69.75 -43.765625 L 69.75 -17.375 C 69.75 -9.90625 69.859375 -5.414062 70.078125 -3.90625 C 70.304688 -2.40625 70.609375 -1.429688 70.984375 -0.984375 C 71.359375 -0.546875 71.675781 -0.148438 71.9375 0.203125 L 71.8125 0.46875 C 68.226562 0.15625 65.617188 0 63.984375 0 L 59.34375 0 C 57.925781 0 56.023438 0.0664062 53.640625 0.203125 L 53.640625 -35.9375 C 53.640625 -48.882812 49.707031 -55.359375 41.84375 -55.359375 C 36.007812 -55.359375 31.125 -52.351562 27.1875 -46.34375 Z M 27.1875 -8.484375 "/></g></g></g><g fill="#fff9f9" fill-opacity="1"><g transform="translate(295.978762, 118.365276)"><g><path d="M 55.5 -4.109375 C 49.21875 -0.703125 43.535156 1 38.453125 1 C 33.367188 1 29.015625 0.523438 25.390625 -0.421875 C 21.765625 -1.378906 18.691406 -2.785156 16.171875 -4.640625 C 11.046875 -8.398438 8.484375 -13.835938 8.484375 -20.953125 C 8.484375 -27.316406 11.625 -32.617188 17.90625 -36.859375 C 24.707031 -41.460938 33.945312 -43.765625 45.625 -43.765625 L 48.265625 -43.703125 C 48.796875 -43.648438 49.394531 -43.613281 50.0625 -43.59375 C 50.726562 -43.570312 51.328125 -43.519531 51.859375 -43.4375 C 51.503906 -50.507812 48.453125 -54.640625 42.703125 -55.828125 C 40.796875 -56.222656 38.769531 -56.421875 36.625 -56.421875 C 34.488281 -56.421875 32.390625 -56.234375 30.328125 -55.859375 C 28.273438 -55.484375 26.273438 -54.988281 24.328125 -54.375 C 20.046875 -53 16.976562 -51.425781 15.125 -49.65625 L 14.921875 -49.796875 L 12.9375 -64.453125 C 20.757812 -68.554688 29.3125 -70.609375 38.59375 -70.609375 C 53 -70.609375 62.210938 -65.414062 66.234375 -55.03125 C 67.515625 -51.71875 68.15625 -47.984375 68.15625 -43.828125 L 68.15625 -19.828125 C 68.15625 -14.703125 69.96875 -11.207031 73.59375 -9.34375 L 61.59375 1.65625 C 59.070312 0.332031 57.039062 -1.585938 55.5 -4.109375 Z M 51.921875 -31.5 C 50.722656 -31.71875 49.484375 -31.828125 48.203125 -31.828125 L 45.546875 -31.828125 C 35.785156 -31.828125 29.578125 -29.660156 26.921875 -25.328125 C 26.128906 -24.046875 25.734375 -22.695312 25.734375 -21.28125 C 25.734375 -19.863281 25.984375 -18.613281 26.484375 -17.53125 C 26.992188 -16.445312 27.847656 -15.554688 29.046875 -14.859375 C 31.335938 -13.523438 34.75 -12.859375 39.28125 -12.859375 C 43.8125 -12.859375 48.046875 -13.941406 51.984375 -16.109375 C 51.941406 -16.597656 51.921875 -17.109375 51.921875 -17.640625 Z M 51.921875 -31.5 "/></g></g></g></svg>