<svg xmlns="http://www.w3.org/2000/svg" xmlns:xlink="http://www.w3.org/1999/xlink" width="500" zoomAndPan="magnify" viewBox="0 0 375 374.999991" height="500" preserveAspectRatio="xMidYMid meet" version="1.0"><defs><g/></defs><g fill="#fff9f9" fill-opacity="1"><g transform="translate(-1.524009, 222.664512)"><g><path d="M 7.265625 0 C 7.671875 -2.707031 7.875 -5.109375 7.875 -7.203125 C 7.875 -9.296875 7.863281 -10.726562 7.84375 -11.5 C 7.820312 -12.28125 7.785156 -13.046875 7.734375 -13.796875 C 7.691406 -14.554688 7.648438 -15.269531 7.609375 -15.9375 L 7.40625 -17.609375 L 26.75 -17.609375 C 26.613281 -15.921875 26.546875 -14.539062 26.546875 -13.46875 L 26.421875 -10.671875 C 26.421875 -9.828125 26.421875 -8.238281 26.421875 -5.90625 C 26.421875 -3.570312 26.53125 -1.601562 26.75 0 Z M 7.265625 0 "/></g></g></g><g fill="#fff9f9" fill-opacity="1"><g transform="translate(28.534783, 222.664512)"><g><path d="M 26.484375 -67.171875 C 31.460938 -69.753906 36.550781 -71.046875 41.75 -71.046875 C 46.957031 -71.046875 51.441406 -70.234375 55.203125 -68.609375 C 58.960938 -66.984375 62.265625 -64.660156 65.109375 -61.640625 C 71.296875 -54.921875 74.390625 -46.425781 74.390625 -36.15625 C 74.390625 -24.90625 71.03125 -15.832031 64.3125 -8.9375 C 57.863281 -2.3125 49.835938 1 40.234375 1 C 31.773438 1 24.8125 -1.203125 19.34375 -5.609375 C 13.207031 -10.585938 10.140625 -17.457031 10.140625 -26.21875 L 10.140625 -99.265625 L 26.484375 -99.265625 Z M 26.484375 -26.421875 C 26.484375 -18.585938 31.351562 -14.671875 41.09375 -14.671875 C 45.851562 -14.671875 49.859375 -16.765625 53.109375 -20.953125 C 56.390625 -25.222656 58.03125 -30.535156 58.03125 -36.890625 C 58.03125 -43.296875 56.296875 -48.125 52.828125 -51.375 C 49.722656 -54.257812 45.546875 -55.703125 40.296875 -55.703125 C 37.140625 -55.703125 33.644531 -54.632812 29.8125 -52.5 C 28.613281 -51.832031 27.503906 -51.097656 26.484375 -50.296875 Z M 26.484375 -26.421875 "/></g></g></g><g fill="#fff9f9" fill-opacity="1"><g transform="translate(103.754625, 222.664512)"><g><path d="M 25.546875 -7.46875 C 25.546875 -3.644531 25.632812 -1.15625 25.8125 0 L 9.203125 0 L 9.203125 -69.71875 L 25.546875 -69.71875 L 25.546875 -64.578125 C 29.328125 -68.890625 33.296875 -71.046875 37.453125 -71.046875 C 41.617188 -71.046875 44.898438 -70.535156 47.296875 -69.515625 L 46.09375 -51.5625 L 45.828125 -51.375 C 44.273438 -54.125 41.050781 -55.5 36.15625 -55.5 C 34.289062 -55.5 32.390625 -54.863281 30.453125 -53.59375 C 28.515625 -52.332031 26.878906 -50.65625 25.546875 -48.5625 Z M 25.546875 -7.46875 "/></g></g></g><g fill="#fff9f9" fill-opacity="1"><g transform="translate(145.420546, 222.664512)"><g><path d="M 51.5625 -6.078125 C 45.875 -1.359375 39.671875 1 32.953125 1 C 25.742188 1 20.097656 -1.421875 16.015625 -6.265625 C 12.097656 -10.984375 10.140625 -17.457031 10.140625 -25.6875 L 10.140625 -52.171875 C 10.140625 -61.066406 9.945312 -66.171875 9.5625 -67.484375 C 9.1875 -68.796875 8.910156 -69.628906 8.734375 -69.984375 C 10.785156 -69.804688 12.921875 -69.71875 15.140625 -69.71875 L 20.6875 -69.71875 C 22.144531 -69.71875 24.078125 -69.78125 26.484375 -69.90625 L 26.484375 -31.28125 C 26.484375 -22.125 28.972656 -16.8125 33.953125 -15.34375 C 35.460938 -14.894531 37.109375 -14.671875 38.890625 -14.671875 C 44.140625 -14.671875 48.363281 -16.582031 51.5625 -20.40625 L 51.5625 -69.71875 L 68.109375 -69.71875 L 68.109375 -8.546875 C 68.109375 -4.628906 68.285156 -1.78125 68.640625 0 L 51.5625 0 Z M 51.5625 -6.078125 "/></g></g></g><g fill="#fff9f9" fill-opacity="1"><g transform="translate(221.040628, 222.664512)"><g><path d="M 27.359375 -8.546875 C 27.359375 -4.628906 27.535156 -1.78125 27.890625 0 L 11.140625 0 L 11.140625 -69.71875 L 27.359375 -69.71875 L 27.359375 -63.78125 C 33.222656 -68.625 39.492188 -71.046875 46.171875 -71.046875 C 53.460938 -71.046875 59.285156 -68.566406 63.640625 -63.609375 C 68.003906 -58.648438 70.1875 -52.125 70.1875 -44.03125 L 70.1875 -17.484375 C 70.1875 -9.960938 70.296875 -5.445312 70.515625 -3.9375 C 70.734375 -2.425781 71.03125 -1.445312 71.40625 -1 C 71.789062 -0.550781 72.113281 -0.148438 72.375 0.203125 L 72.25 0.46875 C 68.644531 0.15625 66.019531 0 64.375 0 L 59.703125 0 C 58.285156 0 56.375 0.0664062 53.96875 0.203125 L 53.96875 -36.15625 C 53.96875 -49.1875 50.007812 -55.703125 42.09375 -55.703125 C 36.21875 -55.703125 31.304688 -52.675781 27.359375 -46.625 Z M 27.359375 -8.546875 "/></g></g></g><g fill="#fff9f9" fill-opacity="1"><g transform="translate(296.92754, 222.664512)"><g><path d="M 55.84375 -4.140625 C 49.519531 -0.710938 43.800781 1 38.6875 1 C 33.570312 1 29.191406 0.519531 25.546875 -0.4375 C 21.898438 -1.394531 18.8125 -2.804688 16.28125 -4.671875 C 11.125 -8.453125 8.546875 -13.921875 8.546875 -21.078125 C 8.546875 -27.484375 11.703125 -32.820312 18.015625 -37.09375 C 24.859375 -41.71875 34.148438 -44.03125 45.890625 -44.03125 L 48.5625 -43.96875 C 49.09375 -43.914062 49.691406 -43.878906 50.359375 -43.859375 C 51.035156 -43.835938 51.640625 -43.785156 52.171875 -43.703125 C 51.816406 -50.816406 48.75 -54.972656 42.96875 -56.171875 C 41.050781 -56.566406 39.015625 -56.765625 36.859375 -56.765625 C 34.703125 -56.765625 32.585938 -56.578125 30.515625 -56.203125 C 28.453125 -55.828125 26.441406 -55.328125 24.484375 -54.703125 C 20.171875 -53.328125 17.078125 -51.75 15.203125 -49.96875 L 15.015625 -50.09375 L 13.015625 -64.84375 C 20.878906 -68.976562 29.484375 -71.046875 38.828125 -71.046875 C 53.328125 -71.046875 62.597656 -65.820312 66.640625 -55.375 C 67.929688 -52.03125 68.578125 -48.269531 68.578125 -44.09375 L 68.578125 -19.953125 C 68.578125 -14.785156 70.398438 -11.269531 74.046875 -9.40625 L 61.96875 1.671875 C 59.4375 0.335938 57.394531 -1.597656 55.84375 -4.140625 Z M 52.234375 -31.6875 C 51.035156 -31.90625 49.789062 -32.015625 48.5 -32.015625 L 45.828125 -32.015625 C 36.003906 -32.015625 29.753906 -29.835938 27.078125 -25.484375 C 26.285156 -24.191406 25.890625 -22.832031 25.890625 -21.40625 C 25.890625 -19.988281 26.144531 -18.734375 26.65625 -17.640625 C 27.164062 -16.554688 28.019531 -15.65625 29.21875 -14.9375 C 31.53125 -13.601562 34.960938 -12.9375 39.515625 -12.9375 C 44.078125 -12.9375 48.335938 -14.023438 52.296875 -16.203125 C 52.253906 -16.691406 52.234375 -17.207031 52.234375 -17.75 Z M 52.234375 -31.6875 "/></g></g></g></svg>