<svg xmlns="http://www.w3.org/2000/svg" xmlns:xlink="http://www.w3.org/1999/xlink" width="1080" zoomAndPan="magnify" viewBox="0 0 810 809.999993" height="1080" preserveAspectRatio="xMidYMid meet" version="1.0"><rect x="-81" width="972" fill="#ffffff" y="-80.999999" height="971.999992" fill-opacity="1"/><rect x="-81" width="972" fill="#ffffff" y="-80.999999" height="971.999992" fill-opacity="1"/><path fill="#131313" d="M 499.535156 393.855469 C 490.972656 384.996094 482.554688 376.601562 474.511719 367.855469 C 469.167969 362.039062 465.53125 355.164062 465.847656 346.972656 C 465.953125 344.269531 466.703125 341.328125 468.035156 338.996094 C 470.679688 334.363281 474.351562 334.210938 477.90625 338.175781 C 479.4375 339.882812 480.816406 341.734375 482.203125 343.570312 C 498.5 365.136719 519.613281 381 542.582031 394.703125 C 545.890625 396.675781 549 398.984375 552.230469 401.089844 C 553.183594 401.710938 554.183594 402.339844 555.253906 402.683594 C 564.234375 405.558594 566.992188 414.300781 561.246094 421.796875 C 558.964844 424.777344 555.695312 425.738281 552.210938 426.199219 C 536.070312 428.335938 520.4375 432.355469 505.660156 439.257812 C 495.023438 444.21875 485.722656 450.976562 478.617188 460.527344 C 475.875 464.210938 472.863281 467.703125 469.863281 471.183594 C 466.371094 475.230469 460.980469 475.796875 456.601562 472.71875 C 450.574219 468.484375 449.207031 460.550781 453.472656 454.492188 C 461.691406 442.824219 472.175781 433.449219 483.472656 424.898438 C 484.535156 424.097656 485.632812 423.347656 486.886719 422.449219 C 483.011719 422.449219 479.441406 422.308594 475.886719 422.472656 C 421.144531 424.980469 366.371094 425.625 311.582031 425.253906 C 297.78125 425.160156 283.980469 425.570312 270.179688 425.519531 C 263.546875 425.496094 257.003906 424.394531 251.359375 420.574219 C 249.253906 419.148438 247.222656 417.304688 245.816406 415.210938 C 243.007812 411.039062 244.21875 406.851562 248.855469 404.941406 C 251.6875 403.773438 254.878906 403.101562 257.949219 402.949219 C 268.90625 402.398438 279.882812 402.113281 290.855469 401.824219 C 310.503906 401.300781 330.15625 400.972656 349.800781 400.328125 C 374.875 399.503906 399.941406 398.453125 425.007812 397.5 C 437.75 397.015625 450.496094 396.621094 463.234375 396.003906 C 475.421875 395.40625 487.597656 394.570312 499.53125 393.851562 Z M 499.535156 393.855469 " fill-opacity="1" fill-rule="nonzero"/></svg>