<svg xmlns="http://www.w3.org/2000/svg" xmlns:xlink="http://www.w3.org/1999/xlink" width="1080" zoomAndPan="magnify" viewBox="0 0 810 809.999993" height="1080" preserveAspectRatio="xMidYMid meet" version="1.0"><path fill="#ffffff" d="M 404.339844 0.738281 C 179.644531 1.496094 0.0546875 184.078125 2.992188 408.609375 C 3.125 419.890625 3.734375 431.148438 4.816406 442.375 C 5.902344 453.605469 7.457031 464.769531 9.484375 475.867188 C 11.511719 486.964844 14.003906 497.960938 16.960938 508.847656 C 19.917969 519.734375 23.328125 530.480469 27.191406 541.078125 C 31.054688 551.679688 35.359375 562.097656 40.105469 572.335938 C 44.851562 582.570312 50.019531 592.589844 55.609375 602.390625 C 61.199219 612.191406 67.195312 621.738281 73.59375 631.035156 C 79.992188 640.328125 86.769531 649.339844 93.929688 658.0625 C 95.054688 659.4375 96.070312 660.890625 96.976562 662.421875 C 97.886719 663.949219 98.675781 665.539062 99.34375 667.183594 C 100.011719 668.832031 100.554688 670.519531 100.972656 672.246094 C 101.390625 673.976562 101.675781 675.726562 101.832031 677.496094 C 101.984375 679.265625 102.007812 681.039062 101.898438 682.8125 C 101.789062 684.585938 101.546875 686.34375 101.171875 688.082031 C 100.800781 689.820312 100.296875 691.519531 99.671875 693.183594 C 99.042969 694.847656 98.292969 696.453125 97.425781 698.003906 L 62.730469 760.140625 C 53.113281 777.367188 68.785156 797.734375 87.914062 792.867188 L 205.425781 762.964844 C 207.460938 762.449219 209.523438 762.117188 211.617188 761.960938 C 213.707031 761.808594 215.796875 761.839844 217.882812 762.050781 C 219.972656 762.265625 222.023438 762.660156 224.042969 763.234375 C 226.058594 763.808594 228.011719 764.554688 229.898438 765.472656 C 242.851562 771.765625 256.105469 777.339844 269.664062 782.199219 C 283.21875 787.0625 296.996094 791.179688 311 794.558594 C 325 797.9375 339.140625 800.550781 353.421875 802.40625 C 367.707031 804.257812 382.046875 805.339844 396.445312 805.648438 C 622.359375 810.753906 807.792969 630.355469 808.496094 404.53125 C 809.195312 181.179688 627.851562 -0.015625 404.339844 0.738281 Z M 405.726562 756.15625 C 399.949219 756.15625 394.171875 756.015625 388.398438 755.730469 C 382.628906 755.449219 376.867188 755.023438 371.113281 754.457031 C 365.363281 753.890625 359.628906 753.183594 353.910156 752.335938 C 348.195312 751.492188 342.503906 750.503906 336.832031 749.375 C 331.164062 748.25 325.527344 746.984375 319.921875 745.582031 C 314.316406 744.179688 308.746094 742.636719 303.21875 740.960938 C 297.6875 739.285156 292.199219 737.472656 286.757812 735.527344 C 281.316406 733.582031 275.925781 731.503906 270.585938 729.296875 C 265.246094 727.085938 259.964844 724.746094 254.742188 722.277344 C 249.515625 719.804688 244.355469 717.210938 239.257812 714.488281 C 234.160156 711.765625 229.136719 708.917969 224.175781 705.949219 C 219.21875 702.980469 214.339844 699.890625 209.535156 696.683594 C 204.726562 693.472656 200.003906 690.148438 195.363281 686.707031 C 190.71875 683.269531 186.164062 679.714844 181.699219 676.050781 C 177.230469 672.386719 172.855469 668.617188 168.574219 664.738281 C 164.289062 660.859375 160.105469 656.878906 156.019531 652.792969 C 151.933594 648.710938 147.949219 644.527344 144.066406 640.25 C 140.1875 635.96875 136.414062 631.597656 132.746094 627.132812 C 129.078125 622.667969 125.523438 618.117188 122.082031 613.476562 C 118.640625 608.835938 115.3125 604.117188 112.101562 599.316406 C 108.890625 594.511719 105.800781 589.632812 102.828125 584.679688 C 99.859375 579.726562 97.007812 574.703125 94.285156 569.609375 C 91.5625 564.515625 88.964844 559.359375 86.492188 554.136719 C 84.019531 548.914062 81.679688 543.636719 79.46875 538.300781 C 77.257812 532.964844 75.175781 527.578125 73.230469 522.140625 C 71.28125 516.699219 69.46875 511.21875 67.792969 505.691406 C 66.113281 500.164062 64.574219 494.601562 63.167969 488.996094 C 61.765625 483.394531 60.5 477.761719 59.371094 472.097656 C 58.246094 466.429688 57.257812 460.742188 56.410156 455.027344 C 55.5625 449.316406 54.855469 443.585938 54.285156 437.835938 C 53.71875 432.089844 53.296875 426.332031 53.011719 420.5625 C 52.726562 414.792969 52.585938 409.019531 52.585938 403.246094 C 52.585938 208.339844 210.695312 50.335938 405.726562 50.335938 C 600.007812 50.335938 757.640625 207.113281 758.863281 400.976562 C 760.089844 595.492188 600.378906 756.15625 405.726562 756.15625 Z M 405.726562 756.15625 " fill-opacity="1" fill-rule="nonzero"/><path fill="#ffffff" d="M 342.613281 231.671875 L 342.773438 231.996094 L 363.835938 273.738281 C 364.402344 274.859375 364.921875 276.003906 365.394531 277.164062 C 365.867188 278.328125 366.292969 279.507812 366.671875 280.703125 C 367.050781 281.902344 367.382812 283.109375 367.660156 284.335938 C 367.941406 285.558594 368.171875 286.789062 368.355469 288.03125 C 368.535156 289.273438 368.667969 290.523438 368.75 291.773438 C 368.828125 293.027344 368.859375 294.28125 368.839844 295.535156 C 368.820312 296.789062 368.75 298.042969 368.628906 299.292969 C 368.507812 300.542969 368.335938 301.785156 368.113281 303.019531 C 367.894531 304.253906 367.621094 305.480469 367.300781 306.691406 C 366.980469 307.90625 366.613281 309.105469 366.199219 310.289062 C 365.78125 311.472656 365.316406 312.640625 364.808594 313.785156 C 364.296875 314.933594 363.742188 316.058594 363.140625 317.160156 C 362.539062 318.261719 361.894531 319.335938 361.207031 320.386719 C 360.519531 321.4375 359.789062 322.457031 359.019531 323.449219 C 358.25 324.441406 357.441406 325.402344 356.59375 326.328125 C 355.746094 327.253906 354.859375 328.144531 353.941406 329 C 353.027344 329.847656 352.148438 330.730469 351.304688 331.652344 C 350.457031 332.570312 349.652344 333.523438 348.882812 334.507812 C 348.117188 335.488281 347.390625 336.503906 346.703125 337.546875 C 346.015625 338.589844 345.371094 339.65625 344.773438 340.75 C 344.171875 341.84375 343.617188 342.960938 343.105469 344.097656 C 342.59375 345.238281 342.128906 346.394531 341.710938 347.570312 C 341.292969 348.746094 340.921875 349.9375 340.597656 351.140625 C 340.277344 352.347656 340.003906 353.5625 339.777344 354.789062 C 339.550781 356.019531 339.378906 357.253906 339.25 358.492188 C 339.125 359.734375 339.050781 360.980469 339.023438 362.226562 C 338.996094 363.476562 339.023438 364.722656 339.097656 365.96875 C 339.167969 367.210938 339.292969 368.453125 339.46875 369.6875 C 339.640625 370.925781 339.863281 372.152344 340.136719 373.371094 C 340.410156 374.585938 340.730469 375.792969 341.097656 376.984375 C 341.46875 378.175781 341.882812 379.351562 342.347656 380.511719 C 342.808594 381.667969 343.320312 382.808594 343.875 383.925781 C 356.519531 409.296875 378.425781 444.273438 411.851562 469.507812 C 413.714844 470.921875 415.671875 472.1875 417.726562 473.308594 C 419.777344 474.429688 421.902344 475.390625 424.097656 476.195312 C 426.296875 476.996094 428.539062 477.632812 430.832031 478.101562 C 433.125 478.570312 435.4375 478.863281 437.773438 478.984375 C 440.109375 479.109375 442.441406 479.054688 444.769531 478.828125 C 447.097656 478.601562 449.394531 478.203125 451.664062 477.632812 C 453.929688 477.066406 456.144531 476.328125 458.304688 475.429688 C 460.460938 474.527344 462.539062 473.472656 464.539062 472.261719 L 478.105469 464.011719 C 479.621094 463.089844 481.183594 462.257812 482.792969 461.511719 C 484.40625 460.769531 486.054688 460.117188 487.738281 459.5625 C 489.421875 459.003906 491.136719 458.546875 492.871094 458.183594 C 494.609375 457.820312 496.363281 457.558594 498.128906 457.394531 C 499.894531 457.234375 501.667969 457.171875 503.441406 457.210938 C 505.214844 457.25 506.980469 457.386719 508.738281 457.625 C 510.5 457.867188 512.238281 458.203125 513.957031 458.640625 C 515.675781 459.078125 517.367188 459.613281 519.027344 460.242188 L 572.941406 480.730469 C 574.371094 481.273438 575.773438 481.886719 577.144531 482.566406 C 578.519531 483.25 579.851562 483.996094 581.152344 484.808594 C 582.449219 485.621094 583.703125 486.496094 584.917969 487.433594 C 586.128906 488.367188 587.292969 489.363281 588.40625 490.414062 C 589.523438 491.460938 590.582031 492.566406 591.589844 493.71875 C 592.59375 494.875 593.542969 496.074219 594.429688 497.320312 C 595.316406 498.570312 596.144531 499.855469 596.90625 501.1875 C 597.664062 502.515625 598.359375 503.875 598.988281 505.273438 C 599.617188 506.667969 600.171875 508.09375 600.660156 509.546875 C 601.148438 510.996094 601.5625 512.46875 601.90625 513.960938 C 602.25 515.453125 602.519531 516.957031 602.714844 518.476562 C 602.90625 519.996094 603.027344 521.519531 603.074219 523.050781 C 603.117188 524.578125 603.085938 526.109375 602.984375 527.636719 C 602.878906 529.164062 602.695312 530.683594 602.441406 532.191406 C 602.1875 533.699219 601.859375 535.195312 601.457031 536.671875 C 601.058594 538.148438 600.585938 539.605469 600.039062 541.035156 C 599.410156 542.679688 598.691406 544.285156 597.882812 545.851562 L 582.945312 574.792969 C 582.339844 575.960938 581.6875 577.101562 580.988281 578.214844 C 580.289062 579.328125 579.542969 580.410156 578.753906 581.457031 C 577.960938 582.507812 577.125 583.523438 576.25 584.503906 C 575.375 585.484375 574.457031 586.425781 573.5 587.328125 C 572.542969 588.230469 571.550781 589.09375 570.523438 589.910156 C 569.492188 590.730469 568.429688 591.503906 567.335938 592.234375 C 566.242188 592.964844 565.121094 593.648438 563.96875 594.28125 C 562.816406 594.917969 561.640625 595.503906 560.4375 596.039062 C 559.234375 596.574219 558.015625 597.058594 556.773438 597.492188 C 555.53125 597.925781 554.273438 598.304688 552.996094 598.632812 C 551.722656 598.960938 550.4375 599.230469 549.140625 599.449219 C 547.84375 599.667969 546.539062 599.832031 545.226562 599.941406 C 543.917969 600.050781 542.601562 600.101562 541.289062 600.101562 C 539.972656 600.097656 538.660156 600.042969 537.347656 599.929688 C 536.039062 599.816406 534.734375 599.648438 533.4375 599.425781 C 532.140625 599.203125 530.855469 598.925781 529.582031 598.597656 C 444.90625 576.703125 243.097656 500.601562 226.839844 270.480469 C 226.675781 268.210938 226.683594 265.9375 226.851562 263.667969 C 227.023438 261.398438 227.359375 259.152344 227.859375 256.929688 C 228.359375 254.707031 229.015625 252.535156 229.832031 250.410156 C 230.648438 248.28125 231.617188 246.226562 232.734375 244.242188 C 233.851562 242.257812 235.109375 240.367188 236.5 238.566406 C 237.894531 236.765625 239.414062 235.074219 241.054688 233.492188 C 242.695312 231.914062 244.441406 230.460938 246.296875 229.136719 C 248.148438 227.8125 250.089844 226.628906 252.117188 225.589844 L 279.613281 211.472656 C 280.976562 210.769531 282.371094 210.140625 283.796875 209.574219 C 285.21875 209.011719 286.667969 208.519531 288.140625 208.097656 C 289.617188 207.679688 291.105469 207.332031 292.613281 207.054688 C 294.121094 206.78125 295.636719 206.582031 297.164062 206.453125 C 298.691406 206.328125 300.222656 206.277344 301.753906 206.300781 C 303.285156 206.328125 304.8125 206.425781 306.335938 206.601562 C 307.855469 206.773438 309.367188 207.023438 310.863281 207.347656 C 312.363281 207.667969 313.839844 208.0625 315.300781 208.53125 C 316.757812 209 318.191406 209.539062 319.597656 210.144531 C 321.003906 210.753906 322.375 211.429688 323.714844 212.175781 C 325.054688 212.917969 326.355469 213.722656 327.617188 214.59375 C 328.875 215.464844 330.089844 216.398438 331.257812 217.386719 C 332.429688 218.375 333.546875 219.421875 334.609375 220.523438 C 335.675781 221.621094 336.6875 222.769531 337.640625 223.96875 C 338.59375 225.167969 339.484375 226.410156 340.316406 227.699219 C 341.144531 228.984375 341.910156 230.308594 342.613281 231.671875 Z M 342.613281 231.671875 " fill-opacity="1" fill-rule="nonzero"/></svg>